<svg width="292" height="146" viewBox="0 0 292 146" fill="none" xmlns="http://www.w3.org/2000/svg">
    <path
        d="M262.744 110.016C262.744 105.206 262.744 100.386 262.744 95.5761C262.744 93.3461 263.134 92.9761 265.344 92.9661C269.904 92.9661 274.464 92.9061 279.034 92.9661C284.134 93.0361 287.564 95.4661 289.034 99.9061C290.694 105.006 289.294 110.616 285.494 113.336C284.494 114.056 284.494 114.466 285.044 115.416C286.804 118.416 288.484 121.566 290.154 124.676C291.104 126.446 290.584 127.286 288.554 127.386H288.364C280.844 127.236 282.684 128.506 279.224 121.976C278.224 120.056 277.224 118.106 276.224 116.156C275.224 114.206 273.504 115.156 272.134 115.156C270.764 115.156 271.504 116.476 271.484 117.156C271.404 119.786 271.484 122.416 271.484 125.046C271.484 126.656 270.734 127.396 269.114 127.346C267.824 127.346 266.544 127.286 265.254 127.346C263.414 127.436 262.654 126.556 262.764 124.796C262.764 124.666 262.764 124.536 262.764 124.406L262.744 110.016Z"
        fill="#106293" />
    <path
        d="M275.474 107.196C271.474 107.196 271.474 107.196 271.424 103.346C271.424 101.846 271.794 101.286 273.344 101.416C275.054 101.556 276.794 101.416 278.524 101.476C278.863 101.446 279.203 101.488 279.524 101.6C279.845 101.712 280.138 101.89 280.385 102.124C280.632 102.357 280.826 102.64 280.955 102.954C281.084 103.269 281.145 103.607 281.134 103.946C281.228 104.616 281.066 105.297 280.681 105.853C280.295 106.409 279.715 106.799 279.054 106.946C277.876 107.178 276.673 107.262 275.474 107.196Z"
        fill="#FBFBFD" />
    <path
        d="M100.094 127.396C96.9443 127.396 93.7943 127.326 90.6443 127.396C88.9143 127.396 88.0743 126.706 88.0643 125.076C88.0643 118.786 87.9643 112.496 88.1443 106.216C88.2343 102.806 87.8943 99.4161 88.0343 96.0161C88.1343 93.3061 88.5943 92.7861 91.3543 92.7761C97.2676 92.7761 103.181 92.7761 109.094 92.7761C111.764 92.7761 112.254 93.2761 112.254 95.8861C112.254 96.9761 112.254 98.0661 112.254 99.1561C112.254 101.156 111.664 101.826 109.644 101.846C106.044 101.846 102.434 101.956 98.8443 101.846C97.1243 101.776 96.9043 102.446 96.8443 103.936C96.7843 105.426 97.3043 106.036 98.9043 105.936C101.274 105.796 103.654 105.856 106.034 105.936C108.204 105.936 108.734 106.576 108.754 108.726C108.754 109.816 108.754 110.906 108.754 111.996C108.754 113.636 107.984 114.316 106.394 114.306C103.764 114.306 101.124 114.366 98.4943 114.306C97.2143 114.306 96.8243 114.646 96.8743 115.916C96.9843 119.186 96.5943 118.536 99.5143 118.576C102.864 118.576 106.204 118.576 109.514 118.576C111.724 118.576 112.184 119.066 112.194 121.316C112.194 122.666 112.194 124.016 112.194 125.366C112.194 126.716 111.514 127.466 110.064 127.446C106.784 127.376 103.434 127.396 100.094 127.396Z"
        fill="#106293" />
    <path
        d="M180.804 128.326C176.209 128.367 171.68 127.235 167.644 125.036C165.644 123.926 165.434 123.096 166.854 121.266C167.594 120.266 168.424 119.396 169.114 118.386C170.184 116.796 171.384 116.586 173.024 117.586C176.079 119.428 179.668 120.178 183.204 119.716C183.779 119.671 184.341 119.526 184.864 119.286C186.564 118.466 186.674 116.886 185.094 115.856C183.723 115.055 182.214 114.515 180.644 114.266C177.62 113.692 174.673 112.765 171.864 111.506C164.494 108.096 164.944 98.816 170.624 94.966C175.114 91.966 180.034 91.486 185.204 92.446C187.541 92.8949 189.774 93.7695 191.794 95.026C193.194 95.876 193.394 96.916 192.464 98.226L192.134 98.696C189.284 102.766 189.284 102.776 184.684 101.076C182.407 100.126 179.862 100.037 177.524 100.826C177.014 100.938 176.555 101.214 176.216 101.611C175.876 102.008 175.676 102.505 175.644 103.026C175.644 104.206 176.644 104.646 177.574 104.906C180.644 105.796 183.804 106.446 186.844 107.436C190.364 108.576 193.414 110.366 194.544 114.296C196.544 121.216 191.884 127.406 184.104 128.156C182.984 128.266 181.894 128.266 180.804 128.326Z"
        fill="#106293" />
    <path
        d="M211.144 92.9561C214.814 92.9561 218.474 92.9561 222.144 92.9561C223.924 92.9561 224.774 93.636 224.674 95.466C224.604 96.7484 224.604 98.0337 224.674 99.3161C224.764 101.066 223.894 101.776 222.254 101.786C220.614 101.796 218.904 101.886 217.254 101.786C215.814 101.686 215.394 102.156 215.414 103.606C215.484 110.536 215.414 117.476 215.414 124.406C215.414 127.126 215.114 127.406 212.464 127.406C206.224 127.406 206.724 128.016 206.724 121.766C206.724 115.766 206.664 109.706 206.724 103.676C206.724 102.116 206.254 101.676 204.724 101.766C203.004 101.876 201.264 101.766 199.524 101.766C199.234 101.799 198.94 101.764 198.665 101.665C198.39 101.565 198.142 101.404 197.94 101.193C197.738 100.982 197.587 100.727 197.499 100.449C197.412 100.17 197.389 99.8748 197.434 99.5861C197.434 98.1061 197.434 96.5861 197.434 95.1561C197.434 93.7261 198.204 92.9761 199.694 92.9861C203.564 92.9761 207.354 92.9561 211.144 92.9561Z"
        fill="#106293" />
    <path
        d="M120.304 110.146C120.304 105.266 120.304 100.386 120.304 95.506C120.304 93.726 120.934 92.856 122.774 92.946C123.994 93.006 125.214 92.946 126.434 92.946C128.634 92.946 129.004 93.336 129.014 95.576C129.014 102.576 129.074 109.576 129.014 116.576C129.014 118.186 129.414 118.656 131.014 118.576C134.224 118.446 137.434 118.576 140.644 118.576C142.854 118.576 143.414 119.126 143.454 121.266C143.454 122.606 143.454 123.956 143.454 125.266C143.472 125.555 143.426 125.845 143.32 126.115C143.215 126.385 143.051 126.629 142.842 126.83C142.633 127.031 142.383 127.183 142.108 127.278C141.834 127.372 141.543 127.406 141.254 127.376C135.028 127.376 128.794 127.376 122.554 127.376C120.874 127.376 120.324 126.506 120.334 124.946C120.324 120.026 120.304 115.086 120.304 110.146Z"
        fill="#106293" />
    <path
        d="M158.964 110.116C158.964 114.936 158.964 119.746 158.964 124.556C158.964 126.906 158.474 127.376 156.154 127.396C154.934 127.396 153.704 127.396 152.484 127.396C150.854 127.396 150.144 126.596 150.144 125.036C150.144 115.156 150.144 105.27 150.144 95.3762C150.144 93.7062 150.874 92.8862 152.594 92.9462C153.884 92.9462 155.174 93.0062 156.454 92.9462C158.264 92.8662 159.004 93.6962 158.994 95.4762C158.934 100.356 158.964 105.266 158.964 110.116Z"
        fill="#106293" />
    <path
        d="M231.224 96.1561C231.084 93.2361 231.224 93.0461 234.104 93.0461C240.104 93.0461 246.104 93.0461 252.104 93.0461C254.934 93.0461 255.104 93.2861 255.014 96.1561C254.651 96.4249 254.236 96.6174 253.796 96.7222C253.357 96.827 252.9 96.842 252.454 96.7661C246.214 96.7661 239.978 96.7661 233.744 96.7661C233.305 96.837 232.856 96.8196 232.423 96.7148C231.99 96.6101 231.583 96.4202 231.224 96.1561Z"
        fill="#06B3B0" />
    <path
        d="M255.074 109.656V111.966C254.712 112.231 254.301 112.421 253.865 112.526C253.429 112.63 252.977 112.648 252.534 112.576C246.274 112.576 240.017 112.576 233.764 112.576C233.322 112.652 232.868 112.637 232.431 112.532C231.995 112.428 231.584 112.235 231.224 111.966V109.656C231.584 109.388 231.995 109.195 232.431 109.09C232.868 108.985 233.322 108.97 233.764 109.046C240.024 109.046 246.281 109.046 252.534 109.046C253.428 108.908 254.341 109.127 255.074 109.656Z"
        fill="#0C97B6" />
    <path
        d="M231.224 96.156H255.054V98.466C254.69 98.7347 254.276 98.9272 253.836 99.0321C253.396 99.1369 252.94 99.1518 252.494 99.076C246.254 99.076 240.017 99.076 233.784 99.076C233.338 99.1548 232.881 99.1413 232.441 99.0364C232.001 98.9314 231.586 98.7373 231.224 98.466V96.156Z"
        fill="#04AFB1" />
    <path
        d="M231.224 111.966H255.074C255.374 113.756 254.324 114.246 252.834 114.256C246.034 114.256 239.234 114.256 232.434 114.256C230.414 114.266 231.364 112.866 231.224 111.966Z"
        fill="#1094B6" />
    <path
        d="M255.044 125.086C255.284 126.796 254.354 127.396 252.814 127.396H233.434C231.874 127.396 230.964 126.796 231.234 125.086C231.594 124.813 232.006 124.617 232.444 124.51C232.883 124.403 233.339 124.388 233.784 124.466C240.024 124.466 246.261 124.466 252.494 124.466C252.939 124.389 253.395 124.404 253.834 124.511C254.272 124.617 254.684 124.813 255.044 125.086Z"
        fill="#0878BA" />
    <path
        d="M255.074 109.656H231.224V107.726C231.585 107.455 231.997 107.261 232.436 107.156C232.874 107.051 233.33 107.038 233.774 107.116C240.014 107.116 246.254 107.116 252.494 107.116C253.396 106.982 254.314 107.204 255.054 107.736C255.064 108.366 255.074 109.006 255.074 109.656Z"
        fill="#099BB5" />
    <path
        d="M255.044 125.086H231.234V123.156C231.595 122.885 232.007 122.69 232.446 122.583C232.884 122.477 233.34 122.461 233.784 122.536C240.024 122.536 246.261 122.536 252.494 122.536C252.939 122.461 253.395 122.478 253.833 122.584C254.271 122.691 254.683 122.885 255.044 123.156V125.086Z"
        fill="#0A7CBA" />
    <path
        d="M231.224 98.4661H255.054C255.054 98.9861 255.054 99.4661 255.054 100.026C254.847 100.359 254.548 100.626 254.194 100.794C253.839 100.963 253.444 101.026 253.054 100.976C246.374 101.046 239.684 101.026 232.994 100.976C232.673 101.003 232.35 100.965 232.044 100.864C231.738 100.762 231.456 100.6 231.214 100.386L231.224 98.4661Z"
        fill="#0AABB1" />
    <path
        d="M231.224 120.456C230.884 118.976 231.394 118.456 232.974 118.456C239.434 118.546 245.904 118.456 252.364 118.456C253.704 118.456 255.014 118.516 255.044 120.366C254.712 120.62 254.331 120.802 253.925 120.9C253.518 120.999 253.096 121.011 252.684 120.936H233.644C233.23 121.032 232.8 121.039 232.383 120.956C231.965 120.874 231.571 120.703 231.224 120.456Z"
        fill="#1686B8" />
    <path
        d="M255.044 123.156H231.234C231.234 122.636 231.234 122.156 231.234 121.606C231.568 121.35 231.951 121.168 232.359 121.07C232.767 120.971 233.191 120.96 233.604 121.036H252.644C253.057 120.96 253.482 120.971 253.89 121.07C254.298 121.168 254.681 121.35 255.014 121.606C255.054 122.126 255.044 122.636 255.044 123.156Z"
        fill="#0D7FB9" />
    <path
        d="M255.064 107.726H231.234C230.924 106.466 231.394 106.056 232.704 106.066C239.394 106.126 246.084 106.066 252.784 106.066C253.904 106.096 255.064 106.116 255.064 107.726Z"
        fill="#0F9FB4" />
    <path
        d="M231.224 100.396H252.804C253.571 100.506 254.353 100.377 255.044 100.026C254.844 102.026 253.264 101.786 251.984 101.796C246.084 101.796 240.174 101.796 234.264 101.796C233.624 101.796 232.974 101.796 232.334 101.796C231.214 101.906 231.024 101.316 231.224 100.396Z"
        fill="#25ABB4" />
    <path d="M255.054 121.606H231.224V120.456H255.044L255.054 121.606Z" fill="#0D83B9" />
    <path
        d="M96.1641 140.266H90.1641V145.266H88.9941V134.646H90.1441V139.266H96.1441V134.666H97.2841V145.266H96.1441L96.1641 140.266ZM110.714 145.266V134.646H117.244V135.646H111.864V139.366H116.754V140.366H111.864V144.156H117.404V145.266H110.714ZM129.344 145.266L133.204 134.646H134.544L138.394 145.266H137.204L136.124 142.266H131.644L130.534 145.266H129.344ZM131.944 141.156H135.794L133.884 135.796L131.944 141.156ZM151.014 134.646H152.194V144.196H157.324V145.266H151.004L151.014 134.646ZM167.484 135.716V134.646H175.394V135.716H172.114V145.266H170.964V135.716H167.484ZM194.864 140.266H188.864V145.266H187.714V134.646H188.864V139.266H194.864V134.666H196.004V145.266H194.864V140.266ZM227.154 134.496C227.849 134.473 228.539 134.631 229.154 134.956C229.7 135.25 230.167 135.672 230.514 136.186C230.852 136.677 231.062 137.244 231.124 137.836H229.894C229.811 137.424 229.652 137.03 229.424 136.676C229.196 136.325 228.888 136.033 228.524 135.826C228.108 135.609 227.643 135.503 227.174 135.516C226.564 135.498 225.961 135.661 225.444 135.986C224.943 136.35 224.571 136.865 224.384 137.456C224.13 138.258 224.012 139.096 224.034 139.936C223.944 141.111 224.22 142.285 224.824 143.296C225.097 143.655 225.454 143.941 225.864 144.13C226.274 144.318 226.724 144.403 227.174 144.376C227.621 144.392 228.063 144.291 228.458 144.082C228.853 143.873 229.186 143.564 229.424 143.186C229.65 142.824 229.809 142.424 229.894 142.006H231.124C231.069 142.446 230.944 142.875 230.754 143.276C230.358 144.133 229.639 144.798 228.754 145.126C228.1 145.353 227.405 145.439 226.715 145.377C226.026 145.315 225.357 145.106 224.754 144.766C224.075 144.308 223.549 143.656 223.244 142.896C222.557 140.979 222.557 138.883 223.244 136.966C223.552 136.212 224.082 135.57 224.764 135.126C225.485 134.695 226.314 134.479 227.154 134.506V134.496ZM242.904 145.266L246.764 134.646H248.094L251.944 145.266H250.764L249.644 142.266H245.164L244.044 145.266H242.904ZM245.504 141.156H249.344L247.434 135.796L245.504 141.156ZM271.974 145.266H270.754L268.754 140.556H265.704V145.266H264.564V134.646H268.564C269.204 134.631 269.84 134.747 270.434 134.986C270.913 135.186 271.314 135.537 271.574 135.986C271.846 136.449 271.981 136.98 271.964 137.516C271.981 138.019 271.871 138.517 271.644 138.966C271.449 139.326 271.176 139.637 270.844 139.876C270.539 140.097 270.202 140.269 269.844 140.386L271.974 145.266ZM268.114 139.576C268.816 139.625 269.515 139.454 270.114 139.086C270.35 138.91 270.538 138.678 270.66 138.411C270.782 138.143 270.835 137.849 270.814 137.556C270.838 137.282 270.794 137.006 270.688 136.751C270.582 136.497 270.416 136.272 270.204 136.096C269.708 135.749 269.109 135.58 268.504 135.616H265.724V139.616L268.114 139.576ZM284.904 145.266V134.646H291.434V135.646H286.054V139.366H290.944V140.366H286.054V144.156H291.644V145.266H284.904Z"
        fill="#6F7070" />
    <path
        d="M69.0718 134.287L20.9318 134.027C16.6116 133.456 12.563 131.599 9.31175 128.697C6.89154 126.475 4.99579 123.743 3.76175 120.697C3.02104 118.644 2.4949 116.519 2.19175 114.357C1.57175 111.057 1.29175 108.507 1.05175 106.017C0.811751 103.527 0.711751 101.817 0.511751 98.2375C0.511751 97.8175 0.321751 94.8275 0.221751 92.2975C-0.088249 84.4975 0.00175104 75.8675 0.051751 73.2975C0.0818914 73.2518 0.115313 73.2083 0.151751 73.1675C16.4218 87.9675 29.0018 99.2075 31.1018 100.377L31.4218 100.677L31.5918 100.817C32.1718 101.317 43.7718 111.677 69.0718 134.287Z"
        fill="#129FC6" />
    <path
        d="M88.3318 1.96744V4.45744V40.8774C88.1497 45.5033 87.5065 50.0994 86.4118 54.5974C85.4118 58.8274 84.5318 62.5974 82.3018 66.5974C79.3684 71.7364 75.124 76.005 70.0018 78.9674L53.4718 87.1974L38.6518 94.5774C38.4618 94.6874 38.2618 94.7774 38.0718 94.8774L33.5118 97.1474C33.094 97.3606 32.6986 97.6152 32.3318 97.9074C31.9955 98.1332 31.7095 98.426 31.4918 98.7674C31.0618 99.5474 31.4918 100.367 31.4018 100.467C31.3118 100.567 31.2618 100.467 31.1018 100.377C29.0018 99.2074 16.4218 87.9674 0.151758 73.1674L0.0517578 73.0774C0.251758 65.9574 0.455091 58.8374 0.661758 51.7174C1.09222 48.4127 2.21743 45.2366 3.96339 42.3979C5.70935 39.5592 8.03649 37.1223 10.7918 35.2474C16.4618 31.2474 21.2018 29.2474 27.9318 26.2474L31.8818 24.4974C35.2618 22.9774 39.1618 21.1774 43.8218 18.8474L71.9418 6.26744C79.0918 3.06744 83.7018 0.96744 84.7218 0.53744C85.0722 0.337495 85.4608 0.213669 85.8622 0.174038C86.2637 0.134407 86.669 0.179863 87.0518 0.30744C87.3755 0.471061 87.6585 0.705078 87.88 0.992323C88.1014 1.27957 88.2558 1.61275 88.3318 1.96744Z"
        fill="#2DBFC5" />
    <path opacity="0.2"
        d="M103.862 1.96743C102.742 14.8874 101.618 27.8008 100.492 40.7074C99.9105 45.2985 98.8754 49.8206 97.4017 54.2074C96.0117 58.3374 94.8417 61.9774 92.2817 65.7874C88.9094 70.6685 84.3028 74.5678 78.9317 77.0874L53.4717 87.1974L70.0017 78.9674C75.1167 75.9925 79.3508 71.7136 82.2717 66.5674C84.5017 62.5674 85.3417 58.8274 86.3817 54.5674C87.4745 50.0791 88.1176 45.4932 88.3017 40.8774V4.45743C95.0717 2.11743 99.3917 0.607426 100.392 0.247425C100.76 0.0842793 101.159 0 101.562 0C101.965 0 102.363 0.0842793 102.732 0.247425C103.035 0.433454 103.293 0.684032 103.489 0.981322C103.684 1.27861 103.811 1.6153 103.862 1.96743Z"
        fill="#08A3C7" />
</svg>
    