<svg width="100%" height="100%" viewBox="0 0 48 48" fill="none" xmlns="http://www.w3.org/2000/svg">
<path d="M30 38C29.4333 38 28.9587 37.808 28.576 37.424C28.192 37.0413 28 36.5667 28 36V32H24C23.4333 32 22.9587 31.808 22.576 31.424C22.192 31.0413 22 30.5667 22 30C22 29.4333 22.192 28.9587 22.576 28.576C22.9587 28.192 23.4333 28 24 28H28V24C28 23.4333 28.192 22.958 28.576 22.574C28.9587 22.1913 29.4333 22 30 22C30.5667 22 31.0413 22.1913 31.424 22.574C31.808 22.958 32 23.4333 32 24V28H36C36.5667 28 37.0413 28.192 37.424 28.576C37.808 28.9587 38 29.4333 38 30C38 30.5667 37.808 31.0413 37.424 31.424C37.0413 31.808 36.5667 32 36 32H32V36C32 36.5667 31.808 37.0413 31.424 37.424C31.0413 37.808 30.5667 38 30 38ZM30 18C29.4333 18 28.9587 17.808 28.576 17.424C28.192 17.0413 28 16.5667 28 16V2C28 1.43333 28.192 0.958 28.576 0.574C28.9587 0.191334 29.4333 0 30 0C30.5667 0 31.0413 0.191334 31.424 0.574C31.808 0.958 32 1.43333 32 2V16C32 16.5667 31.808 17.0413 31.424 17.424C31.0413 17.808 30.5667 18 30 18ZM2 32C1.43333 32 0.958 31.808 0.574 31.424C0.191334 31.0413 0 30.5667 0 30V2C0 1.43333 0.191334 0.958 0.574 0.574C0.958 0.191334 1.43333 0 2 0C2.56667 0 3.042 0.191334 3.426 0.574C3.80867 0.958 4 1.43333 4 2V30C4 30.5667 3.80867 31.0413 3.426 31.424C3.042 31.808 2.56667 32 2 32ZM16 8C15.4333 8 14.9587 7.80867 14.576 7.426C14.192 7.042 14 6.56667 14 6V2C14 1.43333 14.192 0.958 14.576 0.574C14.9587 0.191334 15.4333 0 16 0C16.5667 0 17.042 0.191334 17.426 0.574C17.8087 0.958 18 1.43333 18 2V6C18 6.56667 17.8087 7.042 17.426 7.426C17.042 7.80867 16.5667 8 16 8ZM16 20C15.4333 20 14.9587 19.808 14.576 19.424C14.192 19.0413 14 18.5667 14 18V14C14 13.4333 14.192 12.958 14.576 12.574C14.9587 12.1913 15.4333 12 16 12C16.5667 12 17.042 12.1913 17.426 12.574C17.8087 12.958 18 13.4333 18 14V18C18 18.5667 17.8087 19.0413 17.426 19.424C17.042 19.808 16.5667 20 16 20ZM16 32C15.4333 32 14.9587 31.808 14.576 31.424C14.192 31.0413 14 30.5667 14 30V26C14 25.4333 14.192 24.9587 14.576 24.576C14.9587 24.192 15.4333 24 16 24C16.5667 24 17.042 24.192 17.426 24.576C17.8087 24.9587 18 25.4333 18 26V30C18 30.5667 17.8087 31.0413 17.426 31.424C17.042 31.808 16.5667 32 16 32Z" fill="#FFA000"/>
</svg>
