<svg width="19" height="19" viewBox="0 0 19 19" fill="none" xmlns="http://www.w3.org/2000/svg">
<path d="M5.99609 8.00031C5.99609 8.26552 5.89074 8.51988 5.7032 8.70741C5.51566 8.89495 5.26131 9.00031 4.99609 9.00031C4.73088 9.00031 4.47652 8.89495 4.28899 8.70741C4.10145 8.51988 3.99609 8.26552 3.99609 8.00031C3.99609 7.73509 4.10145 7.48073 4.28899 7.2932C4.47652 7.10566 4.73088 7.00031 4.99609 7.00031C5.26131 7.00031 5.51566 7.10566 5.7032 7.2932C5.89074 7.48073 5.99609 7.73509 5.99609 8.00031ZM7.99609 9.00031C8.26131 9.00031 8.51566 8.89495 8.7032 8.70741C8.89074 8.51988 8.99609 8.26552 8.99609 8.00031C8.99609 7.73509 8.89074 7.48073 8.7032 7.2932C8.51566 7.10566 8.26131 7.00031 7.99609 7.00031C7.73088 7.00031 7.47652 7.10566 7.28899 7.2932C7.10145 7.48073 6.99609 7.73509 6.99609 8.00031C6.99609 8.26552 7.10145 8.51988 7.28899 8.70741C7.47652 8.89495 7.73088 9.00031 7.99609 9.00031ZM10.9961 9.00031C11.2613 9.00031 11.5157 8.89495 11.7032 8.70741C11.8907 8.51988 11.9961 8.26552 11.9961 8.00031C11.9961 7.73509 11.8907 7.48073 11.7032 7.2932C11.5157 7.10566 11.2613 7.00031 10.9961 7.00031C10.7309 7.00031 10.4765 7.10566 10.289 7.2932C10.1015 7.48073 9.99609 7.73509 9.99609 8.00031C9.99609 8.26552 10.1015 8.51988 10.289 8.70741C10.4765 8.89495 10.7309 9.00031 10.9961 9.00031Z" fill="#FEFEFE"/>
<path fill-rule="evenodd" clip-rule="evenodd" d="M13.6538 2.34329C15.0321 3.72148 15.8598 5.55537 15.9817 7.50066C16.1036 9.44595 15.5112 11.3688 14.3158 12.9083C14.3318 12.9213 14.3458 12.9353 14.3608 12.9503L18.6038 17.1933C18.7859 17.3819 18.8867 17.6345 18.8845 17.8967C18.8822 18.1589 18.777 18.4097 18.5916 18.5951C18.4062 18.7805 18.1554 18.8857 17.8932 18.888C17.631 18.8902 17.3784 18.7894 17.1898 18.6073L12.9468 14.3643C12.9323 14.3498 12.9183 14.3347 12.9048 14.3193C11.2971 15.5663 9.27482 16.154 7.24925 15.9628C5.22367 15.7716 3.34701 14.816 2.00104 13.2902C0.655069 11.7645 -0.0590965 9.78333 0.00383158 7.74973C0.0667597 5.71613 0.902055 3.78288 2.33978 2.34329C3.08266 1.60038 3.96459 1.01107 4.93522 0.609003C5.90585 0.20694 6.94617 0 7.99678 0C9.04739 0 10.0877 0.20694 11.0583 0.609003C12.029 1.01107 12.9109 1.60038 13.6538 2.34329ZM3.75378 12.2433C4.31092 12.8005 4.97234 13.2425 5.7003 13.5441C6.42825 13.8457 7.20848 14.0009 7.99643 14.0009C8.78438 14.001 9.56463 13.8458 10.2926 13.5443C11.0206 13.2429 11.6821 12.8009 12.2393 12.2438C12.7965 11.6867 13.2385 11.0252 13.5401 10.2973C13.8416 9.56932 13.9969 8.7891 13.9969 8.00115C13.997 7.21319 13.8418 6.43295 13.5403 5.70496C13.2388 4.97697 12.7969 4.31549 12.2398 3.75829C11.1115 2.64821 9.59022 2.02895 8.0074 2.03539C6.42458 2.04184 4.90843 2.67347 3.78919 3.7927C2.66996 4.91193 2.03833 6.42809 2.03188 8.01091C2.02544 9.59373 2.6437 11.115 3.75378 12.2433Z" fill="#FEFEFE"/>
</svg>
