<svg width="13" height="17" viewBox="0 0 13 17" fill="none" xmlns="http://www.w3.org/2000/svg">
<path d="M1 5.3125V15.9375C1 16.5219 1.45 17 2 17H11C11.55 17 12 16.5219 12 15.9375V5.3125H1ZM4 14.875H3V7.4375H4V14.875ZM6 14.875H5V7.4375H6V14.875ZM8 14.875H7V7.4375H8V14.875ZM10 14.875H9V7.4375H10V14.875ZM12.25 2.125H9V0.796875C8.99921 0.585789 8.91994 0.383588 8.77946 0.234327C8.63898 0.0850651 8.44867 0.000839318 8.25 0L4.75 0C4.55133 0.000839318 4.36102 0.0850651 4.22054 0.234327C4.08006 0.383588 4.00079 0.585789 4 0.796875V2.125H0.75C0.55125 2.12556 0.360791 2.2097 0.220253 2.35902C0.079715 2.50834 0.000527891 2.7107 0 2.92188V4.25H13V2.92188C12.9995 2.7107 12.9203 2.50834 12.7797 2.35902C12.6392 2.2097 12.4487 2.12556 12.25 2.125ZM8 2.125H5V1.07631H8V2.125Z" fill="#EB0F0F"/>
</svg>
