<svg xmlns="http://www.w3.org/2000/svg" version="1.1" xmlns:xlink="http://www.w3.org/1999/xlink"
     xmlns:svgjs="http://svgjs.com/svgjs" width="20" height="20" x="0" y="0" viewBox="0 0 24 24"
     style="enable-background:new 0 0 20 20" xml:space="preserve"><g><path fill="#ffc107" d="M7 16.25c-.654 0-6.382-.064-6.382-2.279v-3.647h12.765v3.647C13.382 16.186 7.654 16.25 7 16.25z" data-original="#ffc107"></path><path
  fill="#ffd54f" d="M7 12.25c-.654 0-6.382-.06-6.382-2.144v-3.43h12.765v3.43C13.382 12.19 7.654 12.25 7 12.25z"
  data-original="#ffd54f"></path><path fill="#ffc107"
                                       d="M7 8.25c-.654 0-6.382-.056-6.382-2.008V3.029h12.765v3.213C13.382 8.194 7.654 8.25 7 8.25z"
                                       data-original="#ffc107"></path><path fill="#ffd54f"
                                                                            d="M7 4.25C6.346 4.25.618 4.201.618 2.5S6.346.75 7 .75s6.382.049 6.382 1.75S7.654 4.25 7 4.25z"
                                                                            data-original="#ffd54f"></path><circle
  cx="17.5" cy="17.5" r="5.85" fill="#4caf50" data-original="#4caf50"></circle><path
  d="M17.5 21a.744.744 0 0 1-.53-.22l-2.25-2.25a.75.75 0 1 1 1.061-1.061l1.72 1.72 1.72-1.72a.75.75 0 1 1 1.061 1.061l-2.25 2.25a.752.752 0 0 1-.532.22z"
  fill="#000000" data-original="#000000"></path><path
  d="M17.5 20.5a.75.75 0 0 1-.75-.75v-5a.75.75 0 0 1 1.5 0v5a.75.75 0 0 1-.75.75z" fill="#000000"
  data-original="#000000"></path><path
  d="M17.5 24c-3.584 0-6.5-2.916-6.5-6.5s2.916-6.5 6.5-6.5 6.5 2.916 6.5 6.5-2.916 6.5-6.5 6.5zm0-11.5c-2.757 0-5 2.243-5 5s2.243 5 5 5 5-2.243 5-5-2.243-5-5-5zM7 5c-.717 0-7-.07-7-2.5S6.283 0 7 0s7 .07 7 2.5S7.717 5 7 5zM1.564 2.5c.471.401 2.447 1 5.436 1s4.965-.599 5.436-1c-.471-.401-2.447-1-5.436-1s-4.965.599-5.436 1zm10.957.094h.01zM7 9c-.717 0-7-.07-7-2.5a.75.75 0 0 1 1.5 0c.219.299 2.268 1 5.5 1s5.281-.701 5.521-1.094c0-.415.325-.703.739-.703.415 0 .74.383.74.797C14 8.93 7.717 9 7 9zM7 13c-.717 0-7-.07-7-2.5a.75.75 0 0 1 1.497-.068C1.802 10.828 3.831 11.5 7 11.5a19.51 19.51 0 0 0 2.935-.211.75.75 0 0 1 .23 1.482C9.203 12.921 8.108 13 7 13zm-5.5-2.5h.01z"
  fill="#000000" data-original="#000000"></path><path
  d="M13.25 10a.75.75 0 0 1-.75-.75V2.5a.75.75 0 0 1 1.5 0v6.75a.75.75 0 0 1-.75.75zM7 17c-.717 0-7-.07-7-2.5v-12a.75.75 0 0 1 1.5 0v12c.218.3 2.266 1 5.5 1 .441 0 .874-.009 1.287-.038.4-.022.772.281.801.695a.75.75 0 0 1-.695.801C7.946 16.989 7.479 17 7 17z"
  fill="#000000" data-original="#000000"></path></g></svg>
