<svg width="100%" height="100%" viewBox="0 0 48 48" fill="none" xmlns="http://www.w3.org/2000/svg">
<path d="M32 26C32.5667 26 33.0413 25.808 33.424 25.424C33.808 25.0413 34 24.5667 34 24C34 23.4333 33.808 22.958 33.424 22.574C33.0413 22.1913 32.5667 22 32 22H24C23.4333 22 22.9587 22.1913 22.576 22.574C22.192 22.958 22 23.4333 22 24C22 24.5667 22.192 25.0413 22.576 25.424C22.9587 25.808 23.4333 26 24 26H32ZM32 18C32.5667 18 33.0413 17.808 33.424 17.424C33.808 17.0413 34 16.5667 34 16C34 15.4333 33.808 14.958 33.424 14.574C33.0413 14.1913 32.5667 14 32 14H24C23.4333 14 22.9587 14.1913 22.576 14.574C22.192 14.958 22 15.4333 22 16C22 16.5667 22.192 17.0413 22.576 17.424C22.9587 17.808 23.4333 18 24 18H32ZM34 40H30C29.4333 40 28.9587 39.808 28.576 39.424C28.192 39.0413 28 38.5667 28 38C28 37.4333 28.192 36.9587 28.576 36.576C28.9587 36.192 29.4333 36 30 36H34V32C34 31.4333 34.192 30.958 34.576 30.574C34.9587 30.1913 35.4333 30 36 30C36.5667 30 37.0413 30.1913 37.424 30.574C37.808 30.958 38 31.4333 38 32V36H42C42.5667 36 43.0413 36.192 43.424 36.576C43.808 36.9587 44 37.4333 44 38C44 38.5667 43.808 39.0413 43.424 39.424C43.0413 39.808 42.5667 40 42 40H38V44C38 44.5667 37.808 45.0413 37.424 45.424C37.0413 45.808 36.5667 46 36 46C35.4333 46 34.9587 45.808 34.576 45.424C34.192 45.0413 34 44.5667 34 44V40ZM16 34C16.5667 34 17.042 33.808 17.426 33.424C17.8087 33.0413 18 32.5667 18 32C18 31.4333 17.8087 30.958 17.426 30.574C17.042 30.1913 16.5667 30 16 30C15.4333 30 14.958 30.1913 14.574 30.574C14.1913 30.958 14 31.4333 14 32C14 32.5667 14.1913 33.0413 14.574 33.424C14.958 33.808 15.4333 34 16 34ZM16 26C16.5667 26 17.042 25.808 17.426 25.424C17.8087 25.0413 18 24.5667 18 24C18 23.4333 17.8087 22.958 17.426 22.574C17.042 22.1913 16.5667 22 16 22C15.4333 22 14.958 22.1913 14.574 22.574C14.1913 22.958 14 23.4333 14 24C14 24.5667 14.1913 25.0413 14.574 25.424C14.958 25.808 15.4333 26 16 26ZM16 18C16.5667 18 17.042 17.808 17.426 17.424C17.8087 17.0413 18 16.5667 18 16C18 15.4333 17.8087 14.958 17.426 14.574C17.042 14.1913 16.5667 14 16 14C15.4333 14 14.958 14.1913 14.574 14.574C14.1913 14.958 14 15.4333 14 16C14 16.5667 14.1913 17.0413 14.574 17.424C14.958 17.808 15.4333 18 16 18ZM10 42C8.9 42 7.958 41.6087 7.174 40.826C6.39133 40.042 6 39.1 6 38V10C6 8.9 6.39133 7.958 7.174 7.174C7.958 6.39133 8.9 6 10 6H38C39.1 6 40.042 6.39133 40.826 7.174C41.6087 7.958 42 8.9 42 10V27.65C41.1 27.1167 40.1413 26.7167 39.124 26.45C38.108 26.1833 37.0667 26.05 36 26.05C34.2333 26.05 32.5833 26.4 31.05 27.1C29.5167 27.8 28.2 28.7667 27.1 30H24C23.4333 30 22.9587 30.1913 22.576 30.574C22.192 30.958 22 31.4333 22 32C22 32.5667 22.192 33.0413 22.576 33.424C22.9587 33.808 23.4333 34 24 34H24.7C24.4667 34.6333 24.292 35.2833 24.176 35.95C24.0587 36.6167 24 37.3 24 38C24 38.6667 24.05 39.3333 24.15 40C24.25 40.6667 24.4167 41.3333 24.65 42H10Z" fill="#FFA000"/>
</svg>
