<svg width="31" height="26" viewBox="0 0 31 26" fill="none" xmlns="http://www.w3.org/2000/svg">
<g filter="url(#filter0_dd_762_956)">
<path d="M1.82031 2.79701C1.82031 2.31962 2.00995 1.86178 2.34752 1.52422C2.68509 1.18665 3.14292 0.997009 3.62031 0.997009H11.4303C11.9471 0.996976 12.4437 1.19694 12.8163 1.55501L15.6733 4.30301C16.0933 4.70701 16.6513 4.93201 17.2333 4.93201H24.9713C25.4487 4.93201 25.9065 5.12165 26.2441 5.45922C26.5817 5.79678 26.7713 6.25462 26.7713 6.73201V14.908L23.2073 24.884H5.82031C4.75945 24.884 3.74203 24.4626 2.99189 23.7124C2.24174 22.9623 1.82031 21.9449 1.82031 20.884V2.79701Z" fill="url(#paint0_linear_762_956)"/>
</g>
<g filter="url(#filter1_f_762_956)">
<path d="M7.00885 10.563C7.52685 9.15599 8.88685 8.21899 10.4119 8.21899H24.6239C25.7859 8.21899 25.5159 9.32299 25.1659 10.41L23.4829 22.102C23.3632 22.4644 23.1319 22.7797 22.822 23.0025C22.512 23.2252 22.1395 23.3441 21.7579 23.342H5.65985C4.96542 23.3416 4.28549 23.1432 3.69985 22.77L3.69585 22.768C3.50985 22.558 2.98485 21.559 3.25585 20.865L7.00985 10.563H7.00885Z" fill="#FCA23D"/>
</g>
<g filter="url(#filter2_dd_762_956)">
<path d="M7.30027 10.489C7.57988 9.7156 8.09109 9.04718 8.76426 8.57477C9.43744 8.10237 10.2399 7.84894 11.0623 7.849H27.8643C28.1627 7.84913 28.4569 7.91956 28.723 8.05458C28.9892 8.18959 29.2197 8.3854 29.3961 8.62613C29.5725 8.86687 29.6897 9.14576 29.7382 9.44022C29.7866 9.73468 29.7651 10.0364 29.6753 10.321L25.5123 23.487C25.3841 23.8923 25.1302 24.2462 24.7873 24.4974C24.4443 24.7486 24.0303 24.884 23.6053 24.884H5.80827C5.03912 24.8828 4.2868 24.6587 3.64227 24.239L3.63727 24.237C3.091 23.8803 2.6397 23.396 2.32227 22.826C2.69427 22.798 2.88827 22.614 2.98227 22.437L7.30027 10.489Z" fill="url(#paint1_linear_762_956)"/>
</g>
<defs>
<filter id="filter0_dd_762_956" x="0.920312" y="0.547009" width="26.6012" height="25.087" filterUnits="userSpaceOnUse" color-interpolation-filters="sRGB">
<feFlood flood-opacity="0" result="BackgroundImageFix"/>
<feColorMatrix in="SourceAlpha" type="matrix" values="0 0 0 0 0 0 0 0 0 0 0 0 0 0 0 0 0 0 127 0" result="hardAlpha"/>
<feOffset dx="-0.3" dy="0.15"/>
<feGaussianBlur stdDeviation="0.3"/>
<feComposite in2="hardAlpha" operator="out"/>
<feColorMatrix type="matrix" values="0 0 0 0 1 0 0 0 0 0.843137 0 0 0 0 0.360784 0 0 0 1 0"/>
<feBlend mode="normal" in2="BackgroundImageFix" result="effect1_dropShadow_762_956"/>
<feColorMatrix in="SourceAlpha" type="matrix" values="0 0 0 0 0 0 0 0 0 0 0 0 0 0 0 0 0 0 127 0" result="hardAlpha"/>
<feOffset dx="0.15" dy="0.15"/>
<feGaussianBlur stdDeviation="0.3"/>
<feComposite in2="hardAlpha" operator="out"/>
<feColorMatrix type="matrix" values="0 0 0 0 0.933333 0 0 0 0 0.658824 0 0 0 0 0.313726 0 0 0 1 0"/>
<feBlend mode="normal" in2="effect1_dropShadow_762_956" result="effect2_dropShadow_762_956"/>
<feBlend mode="normal" in="SourceGraphic" in2="effect2_dropShadow_762_956" result="shape"/>
</filter>
<filter id="filter1_f_762_956" x="1.17969" y="6.21899" width="26.2871" height="19.123" filterUnits="userSpaceOnUse" color-interpolation-filters="sRGB">
<feFlood flood-opacity="0" result="BackgroundImageFix"/>
<feBlend mode="normal" in="SourceGraphic" in2="BackgroundImageFix" result="shape"/>
<feGaussianBlur stdDeviation="1" result="effect1_foregroundBlur_762_956"/>
</filter>
<filter id="filter2_dd_762_956" x="1.52227" y="7.649" width="29.0414" height="18.035" filterUnits="userSpaceOnUse" color-interpolation-filters="sRGB">
<feFlood flood-opacity="0" result="BackgroundImageFix"/>
<feColorMatrix in="SourceAlpha" type="matrix" values="0 0 0 0 0 0 0 0 0 0 0 0 0 0 0 0 0 0 127 0" result="hardAlpha"/>
<feOffset dx="0.3" dy="0.3"/>
<feGaussianBlur stdDeviation="0.25"/>
<feComposite in2="hardAlpha" operator="out"/>
<feColorMatrix type="matrix" values="0 0 0 0 1 0 0 0 0 0.768627 0 0 0 0 0.286275 0 0 0 1 0"/>
<feBlend mode="normal" in2="BackgroundImageFix" result="effect1_dropShadow_762_956"/>
<feColorMatrix in="SourceAlpha" type="matrix" values="0 0 0 0 0 0 0 0 0 0 0 0 0 0 0 0 0 0 127 0" result="hardAlpha"/>
<feOffset dx="-0.3" dy="0.3"/>
<feGaussianBlur stdDeviation="0.25"/>
<feComposite in2="hardAlpha" operator="out"/>
<feColorMatrix type="matrix" values="0 0 0 0 1 0 0 0 0 0.878431 0 0 0 0 0.290196 0 0 0 1 0"/>
<feBlend mode="normal" in2="effect1_dropShadow_762_956" result="effect2_dropShadow_762_956"/>
<feBlend mode="normal" in="SourceGraphic" in2="effect2_dropShadow_762_956" result="shape"/>
</filter>
<linearGradient id="paint0_linear_762_956" x1="6.08831" y1="1.68701" x2="8.90131" y2="11.813" gradientUnits="userSpaceOnUse">
<stop stop-color="#FFD052"/>
<stop offset="1" stop-color="#FFBD41"/>
</linearGradient>
<linearGradient id="paint1_linear_762_956" x1="16.0433" y1="7.848" x2="16.0433" y2="24.884" gradientUnits="userSpaceOnUse">
<stop stop-color="#FFDF54"/>
<stop offset="1" stop-color="#FFBA5F"/>
</linearGradient>
</defs>
</svg>
