<svg width="15" height="15" viewBox="0 0 15 15" fill="none" xmlns="http://www.w3.org/2000/svg">
<path d="M10.9155 0.700619C11.3643 0.251903 11.973 -0.000117175 12.6076 4.08699e-08C13.2422 0.000117257 13.8508 0.252362 14.2995 0.701244C14.7481 1.15013 15.0001 1.75887 15 2.39357C14.9999 3.02827 14.7477 3.63693 14.2988 4.08564L13.3827 5.00065L9.99685 1.61812L10.9142 0.700619H10.9155ZM9.11571 2.50188L1.67159 9.94443C1.44563 10.1706 1.27534 10.4462 1.17415 10.7494L0.0317855 14.1782C-0.00470816 14.2882 -0.00988941 14.4062 0.0168209 14.519C0.0435312 14.6318 0.10108 14.735 0.183036 14.8169C0.264993 14.8989 0.368126 14.9565 0.48091 14.9832C0.593694 15.0099 0.711684 15.0047 0.821692 14.9682L4.25004 13.8257C4.55375 13.7257 4.82872 13.5545 5.05494 13.3282L12.4991 5.88565L9.11446 2.50188H9.11571Z" fill="#A4A2A2"/>
</svg>
