<svg width="23" height="24" viewBox="0 0 23 24" fill="none" xmlns="http://www.w3.org/2000/svg">
<path d="M20.3906 1.875H17.3438V0.703125C17.3438 0.516645 17.2697 0.337802 17.1378 0.20594C17.0059 0.0740789 16.8271 0 16.6406 0C16.4541 0 16.2753 0.0740789 16.1434 0.20594C16.0116 0.337802 15.9375 0.516645 15.9375 0.703125V1.875H6.09375V0.703125C6.09375 0.516645 6.01967 0.337802 5.88781 0.20594C5.75595 0.0740789 5.57711 0 5.39062 0C5.20414 0 5.0253 0.0740789 4.89344 0.20594C4.76158 0.337802 4.6875 0.516645 4.6875 0.703125V1.875H1.64062C1.2055 1.875 0.788205 2.04785 0.480528 2.35553C0.172851 2.6632 0 3.0805 0 3.51562V22.2656C0 22.7007 0.172851 23.118 0.480528 23.4257C0.788205 23.7334 1.2055 23.9062 1.64062 23.9062H20.3906C20.8257 23.9062 21.243 23.7334 21.5507 23.4257C21.8584 23.118 22.0312 22.7007 22.0312 22.2656V3.51562C22.0312 3.0805 21.8584 2.6632 21.5507 2.35553C21.243 2.04785 20.8257 1.875 20.3906 1.875ZM1.64062 3.28125H4.6875V4.45312C4.6875 4.63961 4.76158 4.81845 4.89344 4.95031C5.0253 5.08217 5.20414 5.15625 5.39062 5.15625C5.57711 5.15625 5.75595 5.08217 5.88781 4.95031C6.01967 4.81845 6.09375 4.63961 6.09375 4.45312V3.28125H15.9375V4.45312C15.9375 4.63961 16.0116 4.81845 16.1434 4.95031C16.2753 5.08217 16.4541 5.15625 16.6406 5.15625C16.8271 5.15625 17.0059 5.08217 17.1378 4.95031C17.2697 4.81845 17.3438 4.63961 17.3438 4.45312V3.28125H20.3906C20.4528 3.28125 20.5124 3.30594 20.5564 3.3499C20.6003 3.39385 20.625 3.45346 20.625 3.51562V7.5H1.40625V3.51562C1.40625 3.45346 1.43094 3.39385 1.4749 3.3499C1.51885 3.30594 1.57846 3.28125 1.64062 3.28125ZM20.3906 22.5H1.64062C1.57846 22.5 1.51885 22.4753 1.4749 22.4314C1.43094 22.3874 1.40625 22.3278 1.40625 22.2656V8.90625H20.625V22.2656C20.625 22.3278 20.6003 22.3874 20.5564 22.4314C20.5124 22.4753 20.4528 22.5 20.3906 22.5ZM10.7812 17.1094C10.7782 17.7922 10.5056 18.4462 10.0227 18.929C9.5399 19.4118 8.88594 19.6844 8.20312 19.6875C7.86584 19.6886 7.53168 19.6229 7.21992 19.4941C6.90816 19.3654 6.62498 19.1762 6.38672 18.9375C6.32039 18.873 6.26747 18.7959 6.23097 18.7109C6.19447 18.6258 6.17512 18.5344 6.17403 18.4419C6.17295 18.3493 6.19014 18.2575 6.22462 18.1716C6.25911 18.0857 6.31021 18.0075 6.375 17.9414C6.4395 17.8744 6.51686 17.8211 6.60243 17.7847C6.68801 17.7483 6.78005 17.7296 6.87305 17.7296C6.96604 17.7296 7.05808 17.7483 7.14366 17.7847C7.22924 17.8211 7.30659 17.8744 7.37109 17.9414C7.48021 18.0505 7.61 18.1368 7.75286 18.1952C7.89573 18.2535 8.04881 18.2828 8.20312 18.2812C8.51393 18.2812 8.812 18.1578 9.03177 17.938C9.25154 17.7182 9.375 17.4202 9.375 17.1094C9.375 16.7986 9.25154 16.5005 9.03177 16.2807C8.812 16.061 8.51393 15.9375 8.20312 15.9375C8.07085 15.9373 7.9413 15.8999 7.82936 15.8294C7.71742 15.7589 7.62763 15.6583 7.57031 15.5391C7.51401 15.4185 7.49188 15.2848 7.50635 15.1526C7.52081 15.0203 7.57131 14.8946 7.65234 14.7891L8.61328 13.5938H6.79688C6.61039 13.5938 6.43155 13.5197 6.29969 13.3878C6.16783 13.2559 6.09375 13.0771 6.09375 12.8906C6.09375 12.7041 6.16783 12.5253 6.29969 12.3934C6.43155 12.2616 6.61039 12.1875 6.79688 12.1875H10.0781C10.2097 12.188 10.3385 12.2254 10.4499 12.2955C10.5613 12.3656 10.6508 12.4656 10.7082 12.584C10.7655 12.7025 10.7885 12.8346 10.7745 12.9655C10.7605 13.0963 10.7101 13.2206 10.6289 13.3242L9.42188 14.8359C9.83294 15.0565 10.1765 15.3844 10.4159 15.7847C10.6553 16.1851 10.7815 16.6429 10.7812 17.1094ZM15.4688 12.8906V18.9844C15.4688 19.1709 15.3947 19.3497 15.2628 19.4816C15.1309 19.6134 14.9521 19.6875 14.7656 19.6875C14.5791 19.6875 14.4003 19.6134 14.2684 19.4816C14.1366 19.3497 14.0625 19.1709 14.0625 18.9844V14.2969L13.3125 14.8594C13.2386 14.9148 13.1546 14.9551 13.0651 14.978C12.9757 15.0009 12.8826 15.006 12.7912 14.9929C12.6998 14.9799 12.6118 14.9489 12.5324 14.9019C12.4529 14.8549 12.3835 14.7926 12.3281 14.7188C12.2712 14.6455 12.2296 14.5615 12.2058 14.4718C12.182 14.3821 12.1765 14.2886 12.1896 14.1967C12.2027 14.1049 12.2342 14.0166 12.2822 13.9372C12.3301 13.8577 12.3936 13.7888 12.4687 13.7344L14.3437 12.3281C14.4482 12.2498 14.5724 12.2021 14.7025 12.1903C14.8325 12.1786 14.9633 12.2033 15.0801 12.2617C15.1969 12.3201 15.2951 12.4099 15.3637 12.521C15.4324 12.632 15.4688 12.76 15.4688 12.8906Z" fill="#1255B9"/>
</svg>
