<svg width="100%" height="100%" viewBox="0 0 36 45" fill="none" xmlns="http://www.w3.org/2000/svg">
<path d="M17.6667 22.0833C18.8812 22.0833 19.9214 21.6505 20.787 20.7848C21.6512 19.9206 22.0833 18.8813 22.0833 17.6667C22.0833 16.4521 21.6512 15.412 20.787 14.5463C19.9214 13.6821 18.8812 13.25 17.6667 13.25C16.4521 13.25 15.4127 13.6821 14.5485 14.5463C13.6828 15.412 13.25 16.4521 13.25 17.6667C13.25 18.8813 13.6828 19.9206 14.5485 20.7848C15.4127 21.6505 16.4521 22.0833 17.6667 22.0833ZM17.6667 44.1667C11.741 39.1243 7.31547 34.4404 4.39017 30.115C1.46339 25.7911 0 21.7889 0 18.1083C0 12.5875 1.77624 8.18924 5.32871 4.91354C8.87971 1.63785 12.9924 0 17.6667 0C22.341 0 26.4536 1.63785 30.0046 4.91354C33.5571 8.18924 35.3333 12.5875 35.3333 18.1083C35.3333 21.7889 33.8707 25.7911 30.9454 30.115C28.0186 34.4404 23.5924 39.1243 17.6667 44.1667Z" fill="#EB0F0F"/>
</svg>
