<svg width="40" height="40" viewBox="0 0 40 40" fill="none" xmlns="http://www.w3.org/2000/svg"
    data-custo="fill" class="icon icon--activityVigorous">
    <path fill-rule="evenodd" clip-rule="evenodd"
        d="M31.4337 5.33333C31.4337 7.16667 29.9337 8.66667 28.1003 8.66667C26.267 8.66667 24.767 7.16667 24.767 5.33333C24.767 3.5 26.267 2 28.1003 2C29.9337 2 31.4337 3.5 31.4337 5.33333ZM23.767 24.5L22.817 28.6667C22.417 30.4333 20.6837 31.55 18.917 31.2L12.067 29.8333C11.167 29.65 10.5837 28.7667 10.767 27.8667V27.8C10.9503 26.9 11.8337 26.3167 12.7337 26.5L19.267 27.8333L21.9337 14.3333L18.9337 15.5V19.5C18.9337 20.4167 18.1837 21.1667 17.267 21.1667C16.3503 21.1667 15.6003 20.4167 15.6003 19.5V15.55C15.6003 14.2 16.4003 13 17.6337 12.4667L24.267 9.66667C24.517 9.66667 24.7253 9.625 24.9337 9.58333C25.142 9.54167 25.3503 9.5 25.6003 9.5C26.767 9.5 27.767 10.1667 28.4337 11.1667L30.1003 13.8333C31.217 15.8 33.317 17.3 35.8503 17.7167C36.667 17.85 37.267 18.5333 37.267 19.35C37.267 20.3667 36.367 21.1667 35.367 21.0167C32.467 20.55 29.8837 19.0667 28.1003 17L27.1003 22L29.567 24.35C30.2337 24.9833 30.6003 25.85 30.6003 26.7667V36.1667C30.6003 37.0833 29.8503 37.8333 28.9337 37.8333C28.017 37.8333 27.267 37.0833 27.267 36.1667V27.8333L23.767 24.5ZM14.1962 6.0833C14.1962 5.62307 14.5693 5.24997 15.0296 5.24997H20.1668C20.6271 5.24997 21.0002 5.62307 21.0002 6.0833C21.0002 6.54354 20.6271 6.91664 20.1668 6.91664H15.0296C14.5693 6.91664 14.1962 6.54354 14.1962 6.0833ZM7.50008 9.24996C7.03984 9.24996 6.66675 9.62306 6.66675 10.0833C6.66675 10.5435 7.03984 10.9166 7.50008 10.9166L14.5197 10.9166C14.9799 10.9166 15.353 10.5435 15.353 10.0833C15.353 9.62305 14.9799 9.24996 14.5197 9.24996L7.50008 9.24996ZM8.66667 20.0833C8.66667 19.6231 9.03976 19.25 9.5 19.25H11.8333C12.2936 19.25 12.6667 19.6231 12.6667 20.0833C12.6667 20.5435 12.2936 20.9166 11.8333 20.9166H9.5C9.03976 20.9166 8.66667 20.5435 8.66667 20.0833ZM7.16683 23.2499C6.70659 23.2499 6.3335 23.623 6.3335 24.0833C6.3335 24.5435 6.70659 24.9166 7.16683 24.9166H14.1668C14.6271 24.9166 15.0002 24.5435 15.0002 24.0833C15.0002 23.623 14.6271 23.2499 14.1668 23.2499H7.16683Z"
        fill="#BFBFBF"></path>
</svg>