<svg width="40" height="40" viewBox="0 0 40 40" fill="none" xmlns="http://www.w3.org/2000/svg"
    data-custo="fill" class="icon icon--activityLow">
    <path fill-rule="evenodd" clip-rule="evenodd"
        d="M23.6665 5.33333C23.6665 7.16667 22.1665 8.66667 20.3332 8.66667C18.4999 8.66667 16.9999 7.16667 16.9999 5.33333C16.9999 3.5 18.4999 2 20.3332 2C22.1665 2 23.6665 3.5 23.6665 5.33333ZM18 10.1918C18 10.1918 19.5218 10.0013 20.5 10.0049C21.4787 10.0085 22.0333 10.0295 23 10.1918C23.5115 10.2776 23.8409 10.3682 24.3003 10.5251C25.2709 10.8567 25.9685 11.2856 26.5405 11.6811C27.4805 12.3311 28.6824 13.3325 29.6584 14.3002C30.1462 14.7836 30.6147 15.2951 30.9734 15.779C31.1522 16.0203 31.328 16.2869 31.4648 16.5637C31.5891 16.8155 31.7499 17.2099 31.7499 17.6712C31.7499 18.1032 31.6007 18.5072 31.5095 18.7348C31.3975 19.0141 31.2507 19.3116 31.0963 19.6005C30.7856 20.1812 30.3844 20.836 30.0005 21.4342C29.6132 22.0377 29.2279 22.6079 28.9407 23.0255C28.7966 23.2351 28.6765 23.4074 28.5919 23.5279L28.4929 23.6683L28.4662 23.7059L28.4559 23.7203C27.9198 24.4722 26.8334 24.6753 26.0292 24.1741C25.225 23.6731 25.0079 22.6569 25.5439 21.9051L25.5508 21.8955L25.5741 21.8624L25.6656 21.7325C25.7451 21.6196 25.8593 21.4559 25.9966 21.2562C26.2717 20.8559 26.6365 20.3161 26.9991 19.7507C27.3652 19.1803 27.714 18.6081 27.9658 18.137C28.049 17.9816 28.1154 17.8487 28.1659 17.7392C28.1456 17.71 28.1227 17.6778 28.0968 17.6429C27.8765 17.3457 27.5376 16.9668 27.1122 16.5452C26.2618 15.7021 25.2137 14.8336 24.459 14.3119C24.2799 14.1879 24.1067 14.0749 23.9264 13.972L25.745 36.2443C25.8185 37.1452 25.0969 37.9313 24.1333 38C23.1696 38.0689 22.3287 37.3942 22.2551 36.4933C22.2551 36.4933 20.7 24.0546 20.6 23.8381C20.55 23.7286 20.4648 23.6048 20.3047 23.6048C20.1445 23.6048 20.05 23.7228 20 23.8381C19.9 24.1048 18.4948 36.4933 18.4948 36.4933C18.4211 37.3942 17.5803 38.0689 16.6166 38C15.653 37.9313 14.9314 37.1452 15.0049 36.2443L16.8235 13.972C16.6432 14.0749 16.47 14.1879 16.2909 14.3119C15.5361 14.8336 14.488 15.7021 13.6377 16.5452C13.2123 16.9668 12.8734 17.3457 12.6531 17.6429C12.6272 17.6778 12.6042 17.71 12.584 17.7392C12.6345 17.8487 12.7009 17.9816 12.7841 18.137C13.0359 18.6081 13.3846 19.1803 13.7507 19.7507C14.1134 20.3161 14.4781 20.8559 14.7533 21.2562C14.8906 21.4559 15.0048 21.6196 15.0842 21.7325L15.1758 21.8624L15.1991 21.8955L15.2059 21.9051C15.7419 22.6569 15.5249 23.6731 14.7207 24.1741C13.9165 24.6753 12.8301 24.4722 12.2939 23.7203L12.2837 23.7059L12.257 23.6683L12.158 23.5279L12.0739 23.4079C12.0002 23.3022 11.9106 23.173 11.8092 23.0255C11.522 22.6079 11.1367 22.0377 10.7494 21.4342C10.3655 20.836 9.96423 20.1812 9.65356 19.6005C9.49915 19.3116 9.35242 19.0141 9.24036 18.7348C9.14917 18.5072 9 18.1032 9 17.6712C9 17.4014 9.05493 17.1544 9.12549 16.9456C9.17554 16.7972 9.2334 16.6683 9.28503 16.5637C9.35022 16.4318 9.42419 16.3024 9.50317 16.1766C9.59009 16.0385 9.68286 15.9052 9.77649 15.779C9.87769 15.6425 9.98767 15.5037 10.1044 15.3641C10.4011 15.0087 10.7413 14.6471 11.0914 14.3002C12.0675 13.3325 13.2694 12.3311 14.2094 11.6811C14.7814 11.2856 15.479 10.8567 16.4496 10.5251C17.0172 10.3313 18 10.1918 18 10.1918Z"
        fill="#BFBFBF"></path>
</svg>