<svg width="40" height="40" viewBox="0 0 40 40" fill="none" xmlns="http://www.w3.org/2000/svg"
    data-custo="fill" class="icon icon--activityMaximum">
    <path fill-rule="evenodd" clip-rule="evenodd"
        d="M7.76367 1.46061C7.76367 1.20624 7.96991 1 8.22428 1H9.1455C9.39987 1 9.60611 1.20624 9.60611 1.46061V3.76367H10.8672C11.101 3.27292 11.5777 2.91172 12.1574 2.85122C12.8546 2.77857 13.4944 3.16406 13.7793 3.76367H25.6067C25.8916 3.16406 26.5315 2.77857 27.2287 2.85122C27.8084 2.91172 28.2851 3.27292 28.5189 3.76367H29.873V1.46061C29.873 1.20624 30.0793 1 30.3336 1H31.2549C31.5092 1 31.7155 1.20624 31.7155 1.46061V1.92122H32.6367C32.8911 1.92122 33.0973 2.12746 33.0973 2.38183V3.76367H33.5579C34.0667 3.76367 34.4791 4.17615 34.4791 4.68489C34.4791 5.19363 34.0667 5.60612 33.5579 5.60612H33.0973V6.98795C33.0973 7.24232 32.8911 7.44856 32.6367 7.44856H31.7155V7.90917C31.7155 8.16354 31.5092 8.36978 31.2549 8.36978H30.3336C30.0793 8.36978 29.873 8.16354 29.873 7.90917V5.60612H28.5292C28.1989 7.60759 26.6487 12.0547 24.4472 14.7275C24.001 15.2692 23.4245 16.6608 23.4696 17.582C23.4762 17.7178 23.4696 22.1877 23.4696 22.1877V23.1089V37.3879C23.4696 38.2783 22.7478 39 21.8574 39C20.967 39 20.2453 38.2783 20.2453 37.3879C20.2453 37.3879 20.2453 25.9896 20.2453 25.6901C20.2453 25.3906 19.9846 25.1667 19.7847 25.1667C19.5847 25.1667 19.324 25.3711 19.324 25.6901C19.324 26.0091 19.324 37.3879 19.324 37.3879C19.324 38.2783 18.6023 39 17.7119 39C16.8215 39 16.0998 38.2783 16.0998 37.3879V23.1089V22.1877C16.0998 22.1877 16.0547 18.0426 16.0547 17.582C16.0547 16.6608 15.6857 15.674 14.939 14.7275C12.7251 11.9212 11.1872 7.60757 10.8568 5.60612H9.60611V7.90917C9.60611 8.16354 9.39987 8.36978 9.1455 8.36978H8.22428C7.96991 8.36978 7.76367 8.16354 7.76367 7.90917V7.44856H6.84245C6.58808 7.44856 6.38183 7.24232 6.38183 6.98795V5.60612H5.92122C5.41248 5.60612 5 5.19363 5 4.68489C5 4.17615 5.41248 3.76367 5.92122 3.76367H6.38183V2.38183C6.38183 2.12746 6.58808 1.92122 6.84245 1.92122H7.76367V1.46061ZM19.693 13.4361C16.1138 13.4361 14.6416 8.1388 14.143 5.60612H25.2454C24.7511 8.1388 23.2864 13.4361 19.693 13.4361ZM22.5032 9.29101C22.5032 10.811 21.2596 12.0547 19.7396 12.0547C18.2196 12.0547 16.9759 10.811 16.9759 9.29101C16.9759 7.77099 18.2196 6.52734 19.7396 6.52734C21.2596 6.52734 22.5032 7.77099 22.5032 9.29101Z"
        fill="#BFBFBF"></path>
</svg>