<svg width="40" height="40" viewBox="0 0 40 40" fill="none" xmlns="http://www.w3.org/2000/svg"
    data-custo="fill" class="icon icon--activityAerobic">
    <path fill-rule="evenodd" clip-rule="evenodd"
        d="M25.1467 5.83333C25.1467 7.66667 23.6467 9.16667 21.8133 9.16667C19.98 9.16667 18.48 7.66667 18.48 5.83333C18.48 4 19.98 2.5 21.8133 2.5C23.6467 2.5 25.1467 4 25.1467 5.83333ZM17.9799 13.5L14.982 16.3659L19.078 17.8554C19.9089 18.1575 20.3839 19.032 20.1851 19.8935L18.6851 26.3935C18.4678 27.3352 17.5282 27.9225 16.5864 27.7052C15.6447 27.4878 15.0574 26.5482 15.2747 25.6065L16.4265 20.6154L13.5382 19.5651C13.8916 20.6325 14.3132 22.0375 14.3133 22.6667C14.3134 23.75 13.4799 30 13.4799 30C13.4799 30.9167 12.7299 31.6667 11.8133 31.6667C10.8966 31.6667 10.1466 30.9167 10.1466 30L10.9799 23.3333L8.89669 18.75C8.89669 18.75 7.97994 17.3333 7.97994 16.3333C7.97994 15.5 8.31327 14.6667 8.97994 14L13.6466 9.33333C14.1466 8.66666 14.9799 8.33333 15.9799 8.33333C16.9799 8.33333 17.8133 8.66666 18.6466 9.33333L21.8133 12.5C23.0299 13.7 24.5466 14.5833 26.3966 14.8833C27.1966 15.0167 27.8133 15.7167 27.8133 16.5333C27.8133 17.55 26.9133 18.35 25.9133 18.2C23.2799 17.8 21.0799 16.6 19.3133 14.8333L17.9799 13.5ZM8.79533 35.7508C8.95969 35.7988 9.12407 35.8468 9.28592 35.9001C15.1398 35.9001 20.9937 35.9001 26.8476 35.8987C26.86 35.8923 26.8723 35.885 26.8845 35.8778C26.9114 35.8618 26.9383 35.8459 26.9672 35.8393C28.2243 35.549 29.0057 34.7656 29.2133 33.5158C29.414 32.3083 28.9398 31.3358 27.9005 30.6617C27.7363 30.5551 27.7411 30.4643 27.7864 30.301C28.2387 28.6749 28.682 27.046 29.1253 25.4171C29.2195 25.0688 29.2552 24.728 29.0181 24.4077C28.9652 24.3366 28.9535 24.2171 28.9604 24.1229C29.0367 23.1046 29.1192 22.0862 29.203 21.0686C29.2821 20.1072 29.3624 19.1459 29.4428 18.1845C29.4911 17.6078 29.5393 17.0311 29.5872 16.4544C29.6168 16.0962 29.6466 15.7381 29.6764 15.3799C29.7699 14.2563 29.8634 13.1328 29.9494 12.009C29.9701 11.7392 30.0718 11.5978 30.3378 11.5056C31.1908 11.2091 32.0378 10.8962 32.8848 10.5833C33.0738 10.5134 33.2629 10.4436 33.452 10.3739C33.7943 10.2483 34.0025 10.0119 34.0005 9.63358C33.9977 9.05032 33.4664 8.74708 32.8341 8.97724C31.5612 9.44145 30.2895 9.90797 29.0177 10.3745C28.3322 10.626 27.6467 10.8775 26.961 11.1286C26.8147 11.1824 26.6681 11.2353 26.5215 11.2883C26.1321 11.4289 25.7427 11.5694 25.3602 11.7262C24.9437 11.897 24.7719 12.3231 24.9258 12.7076C25.077 13.086 25.4626 13.2622 25.8791 13.14C25.9987 13.1045 26.117 13.0614 26.2345 13.0184C26.6815 12.8559 27.1285 12.6929 27.5787 12.5288C27.9023 12.4109 28.2275 12.2923 28.5556 12.1729C28.5556 12.242 28.557 12.3079 28.5583 12.3715C28.5611 12.5022 28.5637 12.6235 28.5535 12.7438C28.5179 13.1587 28.4798 13.5734 28.4417 13.9882C28.3937 14.5115 28.3456 15.0348 28.3026 15.5584C28.1463 17.4587 27.9929 19.3594 27.8395 21.2599C27.7811 21.9837 27.7227 22.7074 27.6641 23.431L27.6639 23.433C27.6441 23.6788 27.6256 23.9074 27.3555 24.0553C27.2242 24.1276 27.139 24.3141 27.073 24.4664C26.8009 25.0934 26.5352 25.7228 26.2694 26.3522C26.1647 26.6004 26.0599 26.8485 25.9547 27.0965C25.6825 27.7387 25.4095 28.3809 25.1347 29.0272C25.0308 29.2718 24.9266 29.5169 24.822 29.7629C23.1015 29.3259 21.3062 28.9537 19.5114 28.5816C17.7157 28.2092 15.9204 27.837 14.201 27.4001C14.201 27.4001 13.9954 29.4863 13.7576 30.4895C13.4937 31.6055 12.5686 32.2311 11.4407 32.0816C10.4454 31.9497 9.71069 31.0127 9.77048 29.9193C9.79035 29.5592 9.91321 28.5508 10.0237 27.644C10.1043 26.9822 10.1784 26.3746 10.201 26.1124C10.0653 26.1257 9.92127 26.1357 9.77711 26.1457C9.51604 26.1638 9.25443 26.182 9.04055 26.2203C6.94905 26.5925 5.34072 28.2624 5.04655 30.3509C4.7565 32.4135 5.84178 34.4699 7.74633 35.3824C8.07854 35.5416 8.43692 35.6462 8.79533 35.7508Z"
        fill="#BFBFBF"></path>
</svg>