<svg width="40" height="40" viewBox="0 0 40 40" fill="none" xmlns="http://www.w3.org/2000/svg"
    data-custo="fill" class="icon icon--activityModerate">
    <path fill-rule="evenodd" clip-rule="evenodd"
        d="M26.0149 8.25788L22.4017 3.72629C21.8235 3.00114 21.9426 1.94456 22.6678 1.36636C23.3929 0.788153 24.4495 0.907281 25.0277 1.63243L29.181 6.84126C29.4072 7.12502 29.5267 7.45953 29.5449 7.79627C29.5449 7.79627 29.551 7.86477 29.5491 7.90183C29.535 8.16281 29.4981 8.40529 29.4438 8.60302C29.4171 8.70025 29.3864 8.79911 29.3526 8.89868C29.2485 9.20465 29.1149 9.51764 28.9753 9.81588C28.5995 10.6185 28.0679 11.5498 27.5485 12.4065C27.0234 13.2726 26.4857 14.1032 26.0812 14.7146C25.9514 14.9107 25.835 15.085 25.7364 15.2317L26.6432 26.1068L28.0775 37.1033C28.1975 38.0231 27.5492 38.8658 26.6296 38.9857C25.7099 39.1057 24.8671 38.4574 24.7471 37.5379C24.7471 37.5379 23.043 26.247 22.947 26.0935C22.899 25.9399 22.7658 25.8075 22.6111 25.8057C22.4565 25.804 22.3713 25.9014 22.2753 26.0935C22.1793 26.2855 19.5981 37.1975 19.5981 37.1975C19.4011 38.1037 18.5067 38.6786 17.6004 38.4815C16.6941 38.2848 16.1191 37.3903 16.3161 36.4839L18.6767 25.6249V17.2233C18.5107 17.2959 18.3565 17.3746 18.2057 17.4592C18.0975 17.5198 17.9912 17.5836 17.8834 17.6503C17.7961 17.7047 17.7075 17.7593 17.6177 17.8143C17.4878 17.8944 17.3555 17.9752 17.222 18.0568L17.1816 18.0814L17.1757 18.0849L17.1468 18.1025C16.4808 18.5097 15.7887 18.933 15.1871 19.3512C14.9538 19.5135 14.7577 19.659 14.5993 19.7862C14.8318 20.1716 15.1486 20.6381 15.4849 21.1085C15.8306 21.5921 16.1786 22.0548 16.4416 22.3982C16.5726 22.5692 16.6816 22.7096 16.7574 22.8065L16.8445 22.9176L16.8667 22.9455L16.8731 22.9537C17.4498 23.6799 17.3288 24.7363 16.6025 25.3131C15.8762 25.8899 14.8199 25.7687 14.2431 25.0425L14.233 25.0298L14.207 24.9968L14.1114 24.875L13.9637 24.6852C13.9075 24.6126 13.8441 24.5304 13.7751 24.4402C13.4983 24.0789 13.1267 23.5848 12.7526 23.0617C12.6535 22.923 12.5529 22.7803 12.4528 22.636C12.1792 22.2417 11.9098 21.8343 11.6864 21.4592C11.6284 21.362 11.5708 21.2622 11.5153 21.1617C11.4258 20.9996 11.3416 20.8351 11.2698 20.6746C11.1826 20.4795 11.0001 20.0526 11 19.5681C10.9999 19.0164 11.221 18.5851 11.3807 18.334C11.5518 18.0645 11.7606 17.8338 11.9496 17.6485C12.3284 17.2771 12.8067 16.9156 13.2701 16.5935C13.972 16.1055 14.8095 15.5941 15.5043 15.1698C15.724 15.0358 15.9294 14.9102 16.1118 14.7971C16.6628 14.455 17.3227 14.0919 18.2325 13.8129C18.7945 13.6405 19.3671 13.5915 19.7454 13.5767C19.8597 13.5723 19.9646 13.5706 20.0568 13.5704C20.1263 13.5704 20.1883 13.5711 20.2418 13.5725C20.267 13.573 20.2954 13.5745 20.3264 13.5761H20.3264L20.3266 13.5761C20.3656 13.5781 20.4089 13.5803 20.4554 13.5812C21.7955 13.7146 23.3245 12.8649 23.7147 12.2752C23.9392 11.936 24.06 11.7241 24.2164 11.4501L24.2164 11.4501C24.3318 11.2478 24.4665 11.0116 24.6765 10.6654C25.1269 9.92248 25.6892 8.91694 26.0149 8.25788ZM23.8746 8.8528C23.8746 10.6121 22.4352 12.0515 20.6759 12.0515C18.9167 12.0515 17.4773 10.6121 17.4773 8.8528C17.4773 7.09353 18.9167 5.65413 20.6759 5.65413C22.4352 5.65413 23.8746 7.09353 23.8746 8.8528Z"
        fill="#BFBFBF"></path>
</svg>