<svg width="50" height="50" viewBox="0 0 50 50" fill="none" xmlns="http://www.w3.org/2000/svg">
    <path fill-rule="evenodd" clip-rule="evenodd"
        d="M25 0C38.807 0 50 11.193 50 25C50 38.807 38.8068 50 25 50C11.1932 50 0 38.807 0 25C0 11.193 11.193 0 25 0Z"
        fill="#E65C5C" />
    <path fill-rule="evenodd" clip-rule="evenodd"
        d="M23.432 21.7799C25.1629 15.8191 29.8008 14.1379 37.0037 14.4029C38.298 14.4502 38.7943 17.4771 36.9244 17.6902C35.6185 17.8388 34.4955 18.0978 33.5393 18.4982C35.0197 20.2513 36.3689 22.1228 36.6158 24.0599C37.0557 27.5099 36.0627 29.7086 35.5123 32.3045C34.3717 37.6828 31.6869 42.0179 28.0633 42.0179C23.8277 42.0179 20.9437 39.1957 17.8312 35.8228C15.3646 33.1502 12.4502 29.0928 11.9309 25.9681C11.3449 22.4441 13.8627 18.2504 15.5416 16.9631C15.4725 14.9658 14.7711 13.6504 13.4545 12.4097C12.7807 11.7746 14.932 10.0519 16.3773 10.9642C17.0728 11.4031 17.8592 12.3488 18.3273 13.2627C16.7119 15.4166 16.1912 18.0974 15.732 20.8617C15.2934 21.6388 14.9391 22.4775 14.7598 23.089C14.5352 23.8576 14.3941 24.739 14.5266 25.5365C14.9508 28.0883 18.0182 32.1457 19.765 34.0381C21.9957 36.4552 24.5301 39.3861 28.0633 39.3861C28.235 39.3861 28.4047 39.3658 28.5715 39.3262C31.1158 38.7183 32.5209 34.0189 32.9232 31.8318C32.9373 31.7562 32.9545 31.6812 32.9744 31.6076C33.6713 29.0562 34.3592 27.1664 34.0055 24.3927C33.8398 23.0918 32.5646 21.3988 31.3379 19.9576C30.5887 20.722 30.0154 21.6955 29.6385 22.9361C29.4303 23.6211 27.5744 23.9707 26.0588 23.6838C24.5135 23.3908 23.2424 22.4324 23.432 21.7799Z"
        fill="white" />
    <path fill-rule="evenodd" clip-rule="evenodd"
        d="M17.1932 21.7031C17.0924 22.3193 17.8256 23.1921 19.4815 23.441C21.4432 23.7359 22.6258 23.1316 22.5594 22.4503C22.35 20.3101 22.7727 14.5732 26.4791 14.9332C27.5414 14.2501 28.7268 13.7623 30.0059 13.4271C30.8063 12.5109 31.016 11.8664 31.0577 11.03C31.0702 10.78 30.8407 10.3097 30.3129 9.98745C29.8594 9.7105 28.8985 9.55034 28.8069 9.90405C28.6379 10.5552 28.2541 11.2341 27.7448 11.8185C27.7078 11.8011 27.6707 11.7841 27.6338 11.7675C27.8852 10.4494 27.7578 9.66519 27.32 8.83374C27.1362 8.48452 26.6573 8.27905 25.9891 8.27905C25.2287 8.27905 24.3354 8.6771 24.4184 9.01929C24.5852 9.70503 24.6133 10.5105 24.4907 11.3117C24.4002 11.3224 24.31 11.3355 24.22 11.35C23.8852 10.3582 23.4467 9.81245 22.8 9.31069C22.4768 9.05991 21.8582 9.02065 21.2553 9.32632C20.5162 9.70034 20.0627 10.5029 20.2746 10.7642C20.6774 11.2605 21.0262 11.8919 21.267 12.5832C18.3981 14.6248 17.8385 17.7654 17.1932 21.7031Z"
        fill="white" />
</svg>
    