<svg width="32" height="32" viewBox="0 0 32 32" fill="none" xmlns="http://www.w3.org/2000/svg">
<path d="M28.3273 20.258C27.5244 19.1837 25.8475 18.2192 26.4742 16.5786C27.4542 14.0134 26.095 12.6371 24.9058 11.8948C23.5271 11.0353 23.0408 9.06984 22.6068 7.63805C21.6621 4.516 19.1288 2.66675 16.0001 2.66675C12.8713 2.66675 10.338 4.516 9.39285 7.6387C8.9597 9.07049 8.47348 11.036 7.0939 11.8954C5.90425 12.6371 4.54508 14.0134 5.52547 16.5792C6.1522 18.2199 4.47526 19.1845 3.67234 20.2586C1.20152 23.5644 3.61842 27.201 7.28469 27.7809H24.7148C28.3813 27.2003 30.7982 23.5637 28.3273 20.258Z" fill="#1B3250"/>
<path d="M9.35328 12.6008C8.69991 12.8973 8.54263 13.706 8.75684 14.4442C8.89092 14.9027 9.20045 15.2898 9.6182 15.5214C10.036 15.753 10.5282 15.8105 10.9881 15.6813L10.4849 12.6141C10.1231 12.4659 9.71846 12.4611 9.35328 12.6008Z" fill="#FFB497"/>
<path d="M22.6461 12.6009C22.2807 12.4616 21.8761 12.4667 21.5144 12.6152L21.0112 15.6804C21.4711 15.8095 21.9634 15.752 22.3811 15.5204C22.7989 15.2888 23.1084 14.9017 23.2425 14.4432C23.4567 13.705 23.2994 12.8963 22.6461 12.6009Z" fill="#FFB497"/>
<path d="M11.0765 14.6684C11.0266 14.6686 10.9773 14.6573 10.9326 14.6352C10.8879 14.6131 10.8489 14.581 10.8187 14.5413C10.4566 14.0653 9.75083 14.054 9.74438 14.0537C9.65891 14.0535 9.57701 14.0194 9.51671 13.9588C9.45642 13.8982 9.42265 13.8162 9.42285 13.7307C9.42305 13.6452 9.4572 13.5633 9.51778 13.503C9.57836 13.4427 9.66041 13.409 9.74589 13.4092C9.78757 13.4092 10.7744 13.4176 11.3324 14.1509C11.3688 14.1986 11.3911 14.2556 11.3968 14.3154C11.4026 14.3752 11.3915 14.4354 11.3648 14.4892C11.3382 14.543 11.297 14.5883 11.246 14.62C11.195 14.6516 11.1361 14.6684 11.0761 14.6684H11.0765Z" fill="#FF977B"/>
<path d="M20.9233 14.6684C20.8633 14.6684 20.8044 14.6516 20.7534 14.62C20.7024 14.5883 20.6612 14.543 20.6345 14.4892C20.6079 14.4354 20.5968 14.3752 20.6025 14.3154C20.6083 14.2556 20.6306 14.1986 20.667 14.1509C21.2256 13.4176 22.2118 13.4092 22.2535 13.4092C22.339 13.409 22.421 13.4427 22.4816 13.503C22.5422 13.5633 22.5763 13.6452 22.5765 13.7307C22.5767 13.8162 22.5429 13.8982 22.4826 13.9588C22.4224 14.0194 22.3405 14.0535 22.255 14.0537C22.2479 14.0537 21.5421 14.0653 21.1807 14.5413C21.1506 14.5809 21.1116 14.613 21.067 14.6351C21.0223 14.6572 20.9731 14.6686 20.9233 14.6684Z" fill="#FF977B"/>
<path d="M24.7792 28.2656H7.22C7.1874 28.2658 7.15519 28.2586 7.1258 28.2445C7.09642 28.2304 7.07062 28.2098 7.05038 28.1842C7.03013 28.1587 7.01596 28.1289 7.00894 28.097C7.00193 28.0652 7.00224 28.0322 7.00987 28.0005C7.29627 26.8291 8.20983 25.0929 9.31548 23.9535C10.0815 23.2156 10.9652 22.6107 11.9303 22.1636C11.9526 22.1525 11.9726 22.1375 11.9893 22.1191C12.5136 21.5917 13.1432 21.1808 13.8371 20.9133C13.8736 20.8574 18.1191 20.8553 18.1578 20.9133L18.16 20.9155C18.8545 21.181 19.4847 21.5911 20.0088 22.1186C20.0255 22.1373 20.0458 22.1524 20.0683 22.1633C21.0336 22.6105 21.9175 23.2155 22.6837 23.9535C23.7894 25.0922 24.7034 26.8291 24.9893 28.0005C24.997 28.0322 24.9973 28.0652 24.9903 28.097C24.9832 28.1289 24.9691 28.1587 24.9488 28.1842C24.9286 28.2098 24.9028 28.2304 24.8734 28.2445C24.844 28.2586 24.8118 28.2658 24.7792 28.2656Z" fill="#E3F2FF"/>
<path d="M18.1591 20.9134C16.6186 22.9653 15.1791 22.9567 13.8384 20.9134C13.9599 20.732 14.0541 20.5336 14.1177 20.3247C14.1263 20.3032 14.1327 20.2796 14.1392 20.2581C14.1683 20.1521 14.1913 20.0445 14.2079 19.9358C14.2318 19.7794 14.2433 19.6214 14.2423 19.4631H17.7552C17.7542 19.6214 17.7657 19.7794 17.7896 19.9358C17.8036 20.0337 17.8237 20.1305 17.8497 20.2259C17.8585 20.2608 17.8693 20.2953 17.8819 20.329C17.9458 20.5361 18.0391 20.7329 18.1591 20.9134Z" fill="#FCCAAF"/>
<path d="M19.4071 28.2658H12.8218C11.9525 22.449 13.8381 20.9135 13.8381 20.9135C14.242 21.4807 15.0563 21.8653 15.9995 21.8653C16.9427 21.8653 17.757 21.4807 18.1588 20.9135L18.1609 20.9156C18.2103 20.9607 18.769 21.6994 19.1686 23.2528C19.4844 24.4822 19.5339 26.9981 19.4071 28.2658Z" fill="#2D87F3"/>
<path d="M13.8387 20.9124C13.1324 21.1838 12.4931 21.6048 11.9648 22.1465C11.5278 22.6277 11.2423 23.2271 11.144 23.8696C11.1011 24.0877 11.7836 23.9467 12.1324 23.8612C12.1401 23.8594 12.1481 23.8603 12.1552 23.8638C12.1623 23.8673 12.168 23.8732 12.1713 23.8804C12.1745 23.8876 12.1752 23.8957 12.1732 23.9033C12.1711 23.9109 12.1665 23.9176 12.1601 23.9222C11.3866 24.4658 11.1176 25.1396 11.1599 25.4971C11.3005 26.4564 11.5829 27.3893 11.9979 28.2655H13.646C13.646 28.2655 12.871 23.73 13.8387 20.9124Z" fill="#BCDEFF"/>
<path d="M19.8386 23.9236C19.8322 23.919 19.8275 23.9123 19.8255 23.9047C19.8234 23.897 19.8241 23.8889 19.8274 23.8817C19.8307 23.8745 19.8363 23.8687 19.8434 23.8652C19.8505 23.8617 19.8586 23.8608 19.8663 23.8626C20.2157 23.9485 20.8989 24.0882 20.8546 23.8701C20.7573 23.2272 20.4717 22.6276 20.0339 22.147C19.5056 21.6046 18.8655 21.1838 18.1582 20.9137C19.125 23.7313 18.3516 28.266 18.3516 28.266H19.9997C20.4147 27.3898 20.6971 26.4568 20.8377 25.4976C20.8813 25.1399 20.6136 24.467 19.8386 23.9236Z" fill="#BCDEFF"/>
<path d="M17.8819 20.329C16.6336 21.4355 15.3789 21.4398 14.1177 20.3247C14.1263 20.3032 14.1327 20.2796 14.1392 20.2581C14.1683 20.1521 14.1913 20.0445 14.2079 19.9358C14.2318 19.7794 14.2433 19.6214 14.2423 19.4631H17.7552C17.7541 19.6214 17.7656 19.7794 17.7895 19.9358C17.8036 20.0337 17.8237 20.1305 17.8497 20.2259C17.8585 20.2608 17.8692 20.2953 17.8819 20.329Z" fill="#FF977B"/>
<path d="M21.5155 12.8293C21.292 16.1832 20.4262 17.7924 19.0833 18.8345C18.1895 19.507 16.7264 20.3105 16.0002 20.3105C15.274 20.3105 13.8108 19.507 12.917 18.8345C11.5742 17.7924 10.7083 16.1832 10.4849 12.8293C13.77 11.5273 12.367 4.8904 15.8111 6.65436C15.8697 6.68402 15.9345 6.69947 16.0002 6.69947C16.0659 6.69947 16.1306 6.68402 16.1892 6.65436C19.6334 4.8904 18.2304 11.5264 21.5155 12.8293Z" fill="#FCCAAF"/>
<path d="M15.6952 6.64492C13.9781 5.90148 13.5345 7.38211 13.0094 9.13486C12.5421 10.6948 12.0102 12.4703 10.4585 13.0853C10.4626 13.1469 10.4669 13.208 10.4715 13.2685C13.1603 13.2793 14.9251 9.37624 15.6952 6.64492Z" fill="#FFB497"/>
<path d="M16.4213 14.571C16.3734 14.571 16.326 14.5817 16.2827 14.6024C16.2394 14.623 16.2013 14.653 16.171 14.6903C16.1152 14.7076 16.0575 14.7179 15.9992 14.721C15.9397 14.7179 15.8808 14.7075 15.8238 14.6901C15.7819 14.6384 15.7249 14.601 15.6608 14.583C15.5967 14.5651 15.5286 14.5674 15.4659 14.5896C15.4032 14.6119 15.3489 14.6531 15.3105 14.7075C15.2721 14.7618 15.2515 14.8268 15.2515 14.8933C15.2515 15.2801 15.7912 15.366 15.9992 15.366C16.2071 15.366 16.7438 15.2801 16.7438 14.8933C16.7438 14.851 16.7355 14.8091 16.7193 14.7699C16.7031 14.7308 16.6793 14.6953 16.6494 14.6654C16.6194 14.6354 16.5839 14.6117 16.5447 14.5955C16.5056 14.5793 16.4637 14.571 16.4213 14.571Z" fill="#FF977B"/>
<path d="M14.8894 16.2279C14.8514 16.2252 14.8133 16.2312 14.778 16.2457C14.7428 16.2601 14.7114 16.2825 14.6862 16.3111C14.6611 16.3398 14.643 16.3738 14.6332 16.4107C14.6235 16.4475 14.6224 16.4861 14.6301 16.5234C14.7211 16.9692 15.0222 17.6765 16.0154 17.6765C17.0087 17.6765 17.3097 16.9692 17.4008 16.5234C17.4085 16.4861 17.4074 16.4475 17.3977 16.4107C17.3879 16.3738 17.3698 16.3398 17.3446 16.3111C17.3195 16.2825 17.2881 16.2601 17.2528 16.2457C17.2176 16.2312 17.1795 16.2252 17.1415 16.2279C16.8136 16.2475 16.3506 16.1959 16.0154 16.1959C15.6803 16.1959 15.2172 16.2477 14.8894 16.2279Z" fill="#FF886C"/>
<path d="M14.6699 11.0595C14.6282 11.0595 14.5869 11.0514 14.5483 11.0356C13.9121 10.7757 12.1033 10.4246 11.6342 10.9516C11.5772 11.0155 11.4972 11.0541 11.4118 11.0589C11.3263 11.0638 11.2425 11.0345 11.1786 10.9775C11.1148 10.9205 11.0762 10.8405 11.0713 10.7551C11.0665 10.6696 11.0958 10.5858 11.1527 10.5219C12.0001 9.57141 14.362 10.2624 14.7917 10.4379C14.8609 10.4661 14.9182 10.5175 14.9537 10.5833C14.9892 10.649 15.0007 10.7251 14.9863 10.7984C14.9719 10.8717 14.9325 10.9378 14.8748 10.9853C14.8171 11.0327 14.7446 11.0587 14.6699 11.0586V11.0595Z" fill="#284A75"/>
<path d="M17.3293 11.0593C17.2545 11.0593 17.1821 11.0334 17.1244 10.9859C17.0667 10.9385 17.0273 10.8724 17.0129 10.7991C16.9985 10.7258 17.01 10.6497 17.0455 10.5839C17.081 10.5182 17.1383 10.4668 17.2075 10.4386C17.6372 10.2631 19.9991 9.57166 20.8464 10.5226C20.9034 10.5865 20.9327 10.6703 20.9279 10.7558C20.923 10.8412 20.8844 10.9212 20.8206 10.9782C20.7567 11.0352 20.6728 11.0645 20.5874 11.0596C20.5019 11.0548 20.4219 11.0162 20.365 10.9523C19.8957 10.4255 18.0875 10.7766 17.4509 11.0363C17.4122 11.0518 17.3709 11.0596 17.3293 11.0593Z" fill="#284A75"/>
<path d="M15.35 13.3021C15.2749 13.3016 15.2024 13.2749 15.1449 13.2266C15.0873 13.1784 15.0485 13.1115 15.035 13.0376C15.0215 12.9638 15.0343 12.8875 15.0711 12.822C15.1078 12.7565 15.1663 12.706 15.2364 12.679C15.7285 12.4837 16.2767 12.4843 16.7683 12.6807C16.8457 12.7135 16.9072 12.7753 16.9397 12.8528C16.9722 12.9303 16.9731 13.0174 16.9423 13.0956C16.9114 13.1738 16.8513 13.2369 16.7746 13.2713C16.698 13.3058 16.6109 13.309 16.532 13.2802C16.1891 13.1424 15.8061 13.1431 15.4637 13.2821C15.4273 13.2956 15.3888 13.3024 15.35 13.3021Z" fill="white"/>
<path d="M13.3222 15.5443C12.8574 15.5443 12.403 15.4064 12.0166 15.1482C11.6301 14.8899 11.3289 14.5229 11.151 14.0934C10.9732 13.664 10.9266 13.1914 11.0174 12.7356C11.1081 12.2797 11.3319 11.8609 11.6606 11.5323C11.9894 11.2036 12.4081 10.9799 12.864 10.8892C13.3199 10.7986 13.7925 10.8452 14.2219 11.0231C14.6513 11.2011 15.0183 11.5024 15.2765 11.8889C15.5347 12.2754 15.6724 12.7298 15.6723 13.1946C15.6715 13.8176 15.4237 14.4149 14.9831 14.8554C14.5425 15.2958 13.9452 15.5436 13.3222 15.5443ZM13.3222 11.4889C12.9849 11.4889 12.6552 11.5889 12.3747 11.7763C12.0942 11.9638 11.8756 12.2301 11.7465 12.5418C11.6175 12.8534 11.5837 13.1964 11.6495 13.5272C11.7153 13.8581 11.8778 14.162 12.1163 14.4005C12.3549 14.639 12.6588 14.8014 12.9897 14.8672C13.3205 14.933 13.6634 14.8992 13.9751 14.77C14.2867 14.6409 14.5531 14.4223 14.7404 14.1418C14.9278 13.8613 15.0278 13.5315 15.0278 13.1942C15.0272 12.7421 14.8473 12.3087 14.5276 11.9891C14.2078 11.6695 13.7743 11.4897 13.3222 11.4893V11.4889Z" fill="white"/>
<path d="M18.6774 15.5443C18.2126 15.5443 17.7582 15.4065 17.3717 15.1483C16.9852 14.8901 16.684 14.523 16.5061 14.0936C16.3282 13.6641 16.2816 13.1916 16.3723 12.7357C16.463 12.2798 16.6868 11.861 17.0155 11.5324C17.3442 11.2037 17.763 10.9799 18.2189 10.8892C18.6748 10.7986 19.1474 10.8452 19.5768 11.0231C20.0062 11.201 20.3733 11.5023 20.6314 11.8889C20.8896 12.2754 21.0274 12.7298 21.0273 13.1946C21.0265 13.8176 20.7786 14.4147 20.3381 14.8552C19.8976 15.2957 19.3004 15.5435 18.6774 15.5443ZM18.6774 11.4889C18.3401 11.4889 18.0104 11.5888 17.7299 11.7762C17.4494 11.9636 17.2307 12.2299 17.1016 12.5415C16.9725 12.8532 16.9387 13.1961 17.0044 13.5269C17.0702 13.8578 17.2326 14.1617 17.4711 14.4002C17.7096 14.6388 18.0135 14.8013 18.3443 14.8671C18.6751 14.933 19.018 14.8992 19.3297 14.7702C19.6414 14.6411 19.9078 14.4226 20.0952 14.1421C20.2826 13.8617 20.3827 13.5319 20.3827 13.1946C20.3822 12.7425 20.2024 12.3091 19.8827 11.9894C19.563 11.6697 19.1296 11.4898 18.6774 11.4893V11.4889Z" fill="white"/>
<path d="M12.9785 13.4457C13.3049 13.4457 13.5694 13.1812 13.5694 12.8549C13.5694 12.5286 13.3049 12.264 12.9785 12.264C12.6522 12.264 12.3877 12.5286 12.3877 12.8549C12.3877 13.1812 12.6522 13.4457 12.9785 13.4457Z" fill="#284A75"/>
<path d="M13.6448 12.7749C13.5002 12.6685 13.3486 12.572 13.191 12.4859C13.0485 12.4091 12.8924 12.3609 12.7314 12.3439C12.5564 12.3304 12.3805 12.3363 12.2068 12.3615C12.0074 12.4079 11.8044 12.4371 11.6 12.4488C11.5759 12.4484 11.5527 12.4398 11.5341 12.4244C11.5156 12.409 11.5029 12.3877 11.4982 12.3641C11.4934 12.3404 11.4969 12.3159 11.508 12.2945C11.5192 12.2731 11.5373 12.2562 11.5594 12.2466L11.5809 12.2373C11.7249 12.1742 11.9008 12.0586 12.0978 11.9795C12.3027 11.9017 12.5183 11.856 12.737 11.8439C12.9696 11.8318 13.2021 11.8684 13.4196 11.9514C13.6189 12.0285 13.8112 12.1226 13.9944 12.2326C14.0688 12.2749 14.1235 12.345 14.1463 12.4275C14.169 12.5101 14.1581 12.5983 14.1159 12.6727C14.0736 12.7472 14.0035 12.8019 13.921 12.8246C13.8384 12.8474 13.7502 12.8365 13.6757 12.7942C13.6651 12.7884 13.6547 12.7819 13.6448 12.7749Z" fill="#1B3250"/>
<path d="M19.0303 13.4457C19.3566 13.4457 19.6212 13.1812 19.6212 12.8549C19.6212 12.5286 19.3566 12.264 19.0303 12.264C18.704 12.264 18.4395 12.5286 18.4395 12.8549C18.4395 13.1812 18.704 13.4457 19.0303 13.4457Z" fill="#284A75"/>
<path d="M18.0144 12.2333C18.1976 12.1233 18.3899 12.0292 18.5892 11.9521C18.8067 11.8691 19.0392 11.8325 19.2718 11.8447C19.4905 11.8567 19.7061 11.9024 19.911 11.9803C20.108 12.0587 20.2839 12.1736 20.4279 12.2381L20.4494 12.2473C20.4715 12.257 20.4896 12.2739 20.5007 12.2952C20.5119 12.3166 20.5154 12.3412 20.5106 12.3648C20.5059 12.3884 20.4932 12.4097 20.4747 12.4251C20.4561 12.4405 20.4329 12.4491 20.4088 12.4495C20.2044 12.4378 20.0014 12.4086 19.802 12.3623C19.6283 12.337 19.4524 12.3311 19.2774 12.3446C19.1164 12.3616 18.9603 12.4098 18.8178 12.4867C18.6602 12.5727 18.5086 12.6693 18.364 12.7756C18.3298 12.8006 18.2909 12.8186 18.2497 12.8286C18.2085 12.8385 18.1658 12.8403 18.1239 12.8337C18.082 12.8271 18.0418 12.8124 18.0056 12.7903C17.9695 12.7682 17.938 12.7392 17.913 12.705C17.8881 12.6707 17.8701 12.6319 17.8601 12.5907C17.8502 12.5495 17.8484 12.5067 17.855 12.4648C17.8615 12.4229 17.8763 12.3828 17.8984 12.3466C17.9205 12.3104 17.9495 12.2789 17.9837 12.254C17.9934 12.2462 18.0043 12.2394 18.0144 12.2333Z" fill="#1B3250"/>
</svg>
