<svg width="32" height="32" viewBox="0 0 32 32" fill="none" xmlns="http://www.w3.org/2000/svg">
<path d="M11.2881 7.94831C10.0586 7.94448 8.83267 7.94448 7.60319 7.94831C6.29185 7.96263 5.0389 8.49277 4.11552 9.42399C3.19214 10.3552 2.67261 11.6126 2.66938 12.924C2.66555 13.1485 2.66555 13.3694 2.66938 13.5939C2.67281 14.9055 3.19232 16.1631 4.11558 17.0947C5.03884 18.0263 6.29167 18.5571 7.60319 18.5723H9.83766C9.83766 18.5723 12.1942 20.3387 12.2285 20.1054C12.2832 19.7553 11.8668 18.5332 11.8668 18.5332C13.0681 18.3767 14.1718 17.7896 14.9728 16.8807C15.7738 15.9719 16.2176 14.8032 16.2219 13.5917V12.924C16.2186 11.6126 15.6991 10.3552 14.7757 9.42399C13.8524 8.49277 12.5994 7.96263 11.2881 7.94831ZM6.98584 13.6366C6.91254 13.6368 6.84082 13.6153 6.77976 13.5747C6.7187 13.5342 6.67106 13.4764 6.64285 13.4087C6.61465 13.3411 6.60716 13.2665 6.62133 13.1946C6.6355 13.1227 6.67069 13.0566 6.72244 13.0047C6.7742 12.9528 6.8402 12.9174 6.91208 12.903C6.98396 12.8886 7.0585 12.8959 7.12624 12.9239C7.19399 12.9519 7.2519 12.9994 7.29265 13.0603C7.3334 13.1212 7.35515 13.1929 7.35515 13.2662C7.35523 13.3643 7.31637 13.4584 7.24713 13.5278C7.17789 13.5973 7.08391 13.6364 6.98584 13.6366ZM9.12806 14.2594C9.02448 14.2594 8.92322 14.2287 8.8371 14.1712C8.75098 14.1136 8.68385 14.0318 8.64421 13.9361C8.60457 13.8404 8.5942 13.7351 8.61441 13.6335C8.63462 13.532 8.6845 13.4386 8.75774 13.3654C8.83098 13.2922 8.9243 13.2423 9.02589 13.2221C9.12748 13.2019 9.23278 13.2122 9.32848 13.2519C9.42417 13.2915 9.50597 13.3586 9.56351 13.4448C9.62106 13.5309 9.65177 13.6321 9.65177 13.7357C9.65177 13.8746 9.5966 14.0078 9.49838 14.106C9.40017 14.2043 9.26696 14.2594 9.12806 14.2594ZM11.6519 14.1888C11.4987 14.1889 11.3489 14.1435 11.2215 14.0584C11.0941 13.9733 10.9948 13.8524 10.9362 13.7108C10.8775 13.5693 10.8621 13.4135 10.892 13.2633C10.9219 13.113 10.9957 12.975 11.104 12.8667C11.2123 12.7583 11.3503 12.6846 11.5006 12.6547C11.6509 12.6248 11.8066 12.6402 11.9481 12.6988C12.0897 12.7575 12.2106 12.8568 12.2957 12.9842C12.3808 13.1116 12.4262 13.2614 12.4261 13.4146C12.4261 13.6197 12.3447 13.8164 12.1998 13.9616C12.0549 14.1067 11.8584 14.1884 11.6533 14.1888H11.6519Z" fill="#2D87F3"/>
<path d="M20.6109 15.234C19.3033 15.2342 18.0363 15.6879 17.0258 16.5177C16.0153 17.3475 15.3237 18.5021 15.0691 19.7846C14.8145 21.0672 15.0125 22.3983 15.6294 23.5512C16.2463 24.7041 17.244 25.6074 18.4523 26.1071C18.4523 26.1071 18.0868 27.756 18.1402 28.1056C18.1744 28.3378 20.6109 26.5334 20.6109 26.5334C22.1026 26.523 23.5297 25.9231 24.5808 24.8647C25.6319 23.8062 26.2218 22.375 26.2218 20.8833C26.2218 19.3915 25.6319 17.9603 24.5808 16.9019C23.5297 15.8434 22.1026 15.2435 20.6109 15.2332V15.234ZM18.4862 22.0094C18.3331 22.0094 18.1834 21.964 18.0561 21.8789C17.9288 21.7939 17.8295 21.6729 17.7709 21.5315C17.7123 21.39 17.697 21.2343 17.7269 21.0842C17.7568 20.934 17.8305 20.796 17.9388 20.6877C18.0471 20.5795 18.185 20.5057 18.3352 20.4759C18.4854 20.446 18.641 20.4613 18.7825 20.5199C18.924 20.5785 19.0449 20.6777 19.13 20.8051C19.215 20.9324 19.2604 21.0821 19.2604 21.2352C19.2604 21.4405 19.1788 21.6374 19.0336 21.7826C18.8884 21.9277 18.6915 22.0093 18.4862 22.0094ZM21.0098 22.0803C20.9062 22.0803 20.805 22.0496 20.7188 21.992C20.6327 21.9345 20.5656 21.8527 20.5259 21.757C20.4863 21.6613 20.4759 21.556 20.4961 21.4544C20.5164 21.3528 20.5662 21.2595 20.6395 21.1863C20.7127 21.113 20.806 21.0632 20.9076 21.0429C21.0092 21.0227 21.1145 21.0331 21.2102 21.0727C21.3059 21.1124 21.3877 21.1795 21.4452 21.2656C21.5028 21.3518 21.5335 21.453 21.5335 21.5566C21.5334 21.6955 21.4782 21.8286 21.38 21.9268C21.2818 22.025 21.1487 22.0802 21.0098 22.0803ZM23.1515 21.4575C23.0782 21.4575 23.0066 21.4358 22.9457 21.3951C22.8848 21.3544 22.8373 21.2965 22.8093 21.2288C22.7812 21.1612 22.7739 21.0867 22.7882 21.0148C22.8025 20.943 22.8377 20.877 22.8895 20.8252C22.9414 20.7734 23.0074 20.7381 23.0792 20.7238C23.1511 20.7095 23.2255 20.7168 23.2932 20.7449C23.3609 20.7729 23.4187 20.8204 23.4594 20.8813C23.5001 20.9422 23.5219 21.0138 23.5219 21.0871C23.5219 21.1357 23.5124 21.1839 23.4937 21.2289C23.4751 21.2738 23.4479 21.3147 23.4135 21.3491C23.3791 21.3835 23.3382 21.4108 23.2933 21.4294C23.2483 21.448 23.2001 21.4575 23.1515 21.4575Z" fill="#FFB521"/>
<path d="M26.3202 2.66663H20.1241C19.7047 2.66674 19.29 2.75438 18.9065 2.92394C18.523 3.09351 18.1791 3.34127 17.8968 3.65136C17.6145 3.96146 17.4 4.32707 17.2671 4.7248C17.1342 5.12252 17.0858 5.54361 17.125 5.96112L17.465 9.62657C17.5315 10.3348 17.8464 10.9966 18.3539 11.495C18.8615 11.9934 19.5289 12.2962 20.2383 12.3497C20.2383 12.3497 19.9609 13.8494 20.0143 14.1998C20.0485 14.432 22.6698 12.393 22.6698 12.393L25.7489 12.3579C26.4672 12.3583 27.162 12.102 27.7079 11.6351C28.2538 11.1682 28.6148 10.5216 28.7258 9.81191L29.2972 6.14345C29.3641 5.71376 29.3372 5.27466 29.2184 4.85634C29.0996 4.43801 28.8916 4.05037 28.6087 3.72003C28.3259 3.3897 27.9749 3.1245 27.5799 2.94267C27.1848 2.76083 26.7551 2.66666 26.3202 2.66663ZM20.9544 8.37163C20.8013 8.37179 20.6515 8.32652 20.5241 8.24155C20.3966 8.15658 20.2973 8.03572 20.2386 7.89427C20.1798 7.75281 20.1644 7.59712 20.1942 7.44688C20.224 7.29665 20.2976 7.15862 20.4059 7.05026C20.5141 6.9419 20.6521 6.86809 20.8023 6.83815C20.9525 6.80821 21.1082 6.82349 21.2497 6.88207C21.3912 6.94064 21.5122 7.03987 21.5973 7.16721C21.6824 7.29454 21.7278 7.44426 21.7278 7.59742C21.7278 7.80275 21.6462 7.99968 21.5011 8.14487C21.3559 8.29006 21.1589 8.37163 20.9536 8.37163H20.9544ZM23.4783 8.44226C23.3746 8.44264 23.2732 8.41225 23.1868 8.35493C23.1004 8.29762 23.033 8.21596 22.9931 8.1203C22.9531 8.02463 22.9425 7.91927 22.9625 7.81756C22.9825 7.71584 23.0322 7.62234 23.1054 7.54891C23.1785 7.47547 23.2718 7.4254 23.3735 7.40504C23.4751 7.38468 23.5805 7.39494 23.6763 7.43452C23.7721 7.4741 23.854 7.54122 23.9117 7.62739C23.9693 7.71356 24.0001 7.81488 24.0001 7.91855C24.0003 8.0574 23.9454 8.19065 23.8474 8.28901C23.7494 8.38737 23.6163 8.44279 23.4774 8.44308L23.4783 8.44226ZM25.6205 7.81944C25.5472 7.8195 25.4756 7.79782 25.4146 7.75715C25.3537 7.71649 25.3062 7.65866 25.2781 7.59098C25.25 7.5233 25.2426 7.44881 25.2569 7.37695C25.2712 7.30508 25.3064 7.23905 25.3582 7.18722C25.41 7.13539 25.476 7.10009 25.5479 7.08577C25.6197 7.07146 25.6942 7.07878 25.7619 7.1068C25.8296 7.13483 25.8875 7.18231 25.9282 7.24322C25.9689 7.30414 25.9906 7.37577 25.9906 7.44904C25.9907 7.49774 25.9811 7.54596 25.9624 7.59096C25.9438 7.63595 25.9165 7.67682 25.882 7.71123C25.8476 7.74564 25.8066 7.77291 25.7616 7.79148C25.7166 7.81005 25.6684 7.81955 25.6197 7.81944H25.6205Z" fill="#91CAFF"/>
</svg>
