<svg width="32" height="32" viewBox="0 0 32 32" fill="none" xmlns="http://www.w3.org/2000/svg">
<path d="M23.1714 2.66675H4.98315C4.44017 2.66675 4 3.10692 4 3.6499V27.1909C4 27.7339 4.44017 28.174 4.98315 28.174H23.1714C23.7144 28.174 24.1545 27.7339 24.1545 27.1909V3.6499C24.1545 3.10692 23.7144 2.66675 23.1714 2.66675Z" fill="#2D87F3"/>
<path d="M18.2514 6.31955H9.97032C9.88884 6.31955 9.81069 6.28718 9.75307 6.22956C9.69545 6.17194 9.66309 6.0938 9.66309 6.01231C9.66309 5.93083 9.69545 5.85268 9.75307 5.79507C9.81069 5.73745 9.88884 5.70508 9.97032 5.70508H18.2514C18.3329 5.70508 18.411 5.73745 18.4686 5.79507C18.5262 5.85268 18.5586 5.93083 18.5586 6.01231C18.5586 6.0938 18.5262 6.17194 18.4686 6.22956C18.411 6.28718 18.3329 6.31955 18.2514 6.31955Z" fill="#BCDEFF"/>
<path d="M21.395 9.4194H14.0558C13.9743 9.4194 13.8961 9.38703 13.8385 9.32941C13.7809 9.27179 13.7485 9.19365 13.7485 9.11216C13.7485 9.03068 13.7809 8.95254 13.8385 8.89492C13.8961 8.8373 13.9743 8.80493 14.0558 8.80493H21.395C21.4764 8.80493 21.5546 8.8373 21.6122 8.89492C21.6698 8.95254 21.7022 9.03068 21.7022 9.11216C21.7022 9.19365 21.6698 9.27179 21.6122 9.32941C21.5546 9.38703 21.4764 9.4194 21.395 9.4194Z" fill="#BCDEFF"/>
<path d="M21.3946 12.0144H17.2438C17.1623 12.0144 17.0841 11.982 17.0265 11.9244C16.9689 11.8668 16.9365 11.7886 16.9365 11.7071C16.9365 11.6257 16.9689 11.5475 17.0265 11.4899C17.0841 11.4323 17.1623 11.3999 17.2438 11.3999H21.3946C21.4761 11.3999 21.5542 11.4323 21.6119 11.4899C21.6695 11.5475 21.7018 11.6257 21.7018 11.7071C21.7018 11.7886 21.6695 11.8668 21.6119 11.9244C21.5542 11.982 21.4761 12.0144 21.3946 12.0144Z" fill="#BCDEFF"/>
<path d="M9.46087 17.0893H6.57139C6.48991 17.0893 6.41177 17.057 6.35415 16.9993C6.29653 16.9417 6.26416 16.8636 6.26416 16.7821C6.26416 16.7006 6.29653 16.6225 6.35415 16.5648C6.41177 16.5072 6.48991 16.4749 6.57139 16.4749H9.46087C9.54235 16.4749 9.6205 16.5072 9.67811 16.5648C9.73573 16.6225 9.7681 16.7006 9.7681 16.7821C9.7681 16.8636 9.73573 16.9417 9.67811 16.9993C9.6205 17.057 9.54235 17.0893 9.46087 17.0893Z" fill="#BCDEFF"/>
<path d="M15.2954 21.1123H6.57139C6.48991 21.1123 6.41177 21.0799 6.35415 21.0223C6.29653 20.9647 6.26416 20.8865 6.26416 20.805C6.26416 20.7236 6.29653 20.6454 6.35415 20.5878C6.41177 20.5302 6.48991 20.4978 6.57139 20.4978H15.2954C15.3768 20.4978 15.455 20.5302 15.5126 20.5878C15.5702 20.6454 15.6026 20.7236 15.6026 20.805C15.6026 20.8865 15.5702 20.9647 15.5126 21.0223C15.455 21.0799 15.3768 21.1123 15.2954 21.1123Z" fill="#BCDEFF"/>
<path d="M21.5836 25.1355H6.57139C6.48991 25.1355 6.41177 25.1031 6.35415 25.0455C6.29653 24.9879 6.26416 24.9097 6.26416 24.8282C6.26416 24.7467 6.29653 24.6686 6.35415 24.611C6.41177 24.5534 6.48991 24.521 6.57139 24.521H21.5836C21.6651 24.521 21.7432 24.5534 21.8008 24.611C21.8584 24.6686 21.8908 24.7467 21.8908 24.8282C21.8908 24.9097 21.8584 24.9879 21.8008 25.0455C21.7432 25.1031 21.6651 25.1355 21.5836 25.1355Z" fill="#BCDEFF"/>
<path d="M22.6693 24.7775L23.7882 23.6585C23.8112 23.6356 23.8422 23.6227 23.8746 23.6227C23.907 23.6227 23.9381 23.6356 23.961 23.6585L27.6969 27.3944C27.8683 27.5658 27.9646 27.7983 27.9646 28.0407C27.9646 28.2831 27.8683 28.5156 27.6969 28.687C27.5255 28.8584 27.293 28.9547 27.0506 28.9547C26.8082 28.9547 26.5757 28.8584 26.4043 28.687L22.6689 24.9516C22.6576 24.9403 22.6486 24.9268 22.6424 24.912C22.6363 24.8972 22.6331 24.8813 22.6331 24.8652C22.6331 24.8492 22.6363 24.8333 22.6424 24.8185C22.6486 24.8037 22.6576 24.7902 22.6689 24.7789L22.6693 24.7775Z" fill="#1B3250"/>
<path d="M17.9605 27.1099C22.4691 27.1099 26.1241 23.455 26.1241 18.9463C26.1241 14.4377 22.4691 10.7827 17.9605 10.7827C13.4518 10.7827 9.79688 14.4377 9.79688 18.9463C9.79688 23.455 13.4518 27.1099 17.9605 27.1099Z" fill="#284A75"/>
<path d="M17.9611 25.6641C21.6713 25.6641 24.679 22.6564 24.679 18.9462C24.679 15.236 21.6713 12.2283 17.9611 12.2283C14.2509 12.2283 11.2432 15.236 11.2432 18.9462C11.2432 22.6564 14.2509 25.6641 17.9611 25.6641Z" fill="white"/>
<path d="M18.2793 16H17.5457C17.2646 16.0003 16.9952 16.1121 16.7964 16.3108C16.5976 16.5096 16.4858 16.779 16.4854 17.0601V17.2426C16.4854 17.3032 16.4613 17.3613 16.4184 17.4041C16.3756 17.4469 16.3175 17.471 16.2569 17.4711H16.0748C15.7937 17.4715 15.5242 17.5833 15.3255 17.7821C15.1267 17.9808 15.015 18.2503 15.0146 18.5314V19.2657C15.015 19.5468 15.1267 19.8163 15.3255 20.015C15.5242 20.2138 15.7937 20.3256 16.0748 20.326H16.2573C16.3179 20.3261 16.3759 20.3502 16.4188 20.393C16.4616 20.4358 16.4857 20.4939 16.4858 20.5545V20.7368C16.4861 21.0179 16.5979 21.2874 16.7967 21.4862C16.9954 21.685 17.2649 21.7968 17.546 21.7971H18.2793C18.5604 21.7968 18.8299 21.6849 19.0286 21.4862C19.2274 21.2874 19.3391 21.0179 19.3395 20.7368V20.5535C19.3395 20.4928 19.3636 20.4347 19.4065 20.3918C19.4493 20.349 19.5075 20.3248 19.5681 20.3248H19.7515C20.0326 20.3245 20.3021 20.2127 20.5009 20.0139C20.6996 19.8151 20.8114 19.5456 20.8118 19.2645V18.5324C20.8114 18.2513 20.6996 17.9819 20.5008 17.7831C20.302 17.5844 20.0326 17.4726 19.7515 17.4723H19.5681C19.5075 17.4722 19.4494 17.4481 19.4065 17.4052C19.3637 17.3624 19.3395 17.3043 19.3395 17.2436V17.0601C19.3391 16.7791 19.2273 16.5096 19.0286 16.3109C18.8298 16.1122 18.5604 16.0004 18.2793 16Z" fill="#FF6F4D"/>
</svg>
