<svg xmlns="http://www.w3.org/2000/svg" width="21" height="20" fill="none" viewBox="0 0 21 20">
    <path fill="#FE9DC2"
        d="M13.748 15.546h-1.503a.321.321 0 01-.321-.322v-3.7H9.577v3.7a.321.321 0 01-.322.322H7.753a.321.321 0 00-.321.321v1.704c0 .178.144.322.321.322h1.502c.178 0 .322.144.322.321v1.465c0 .178.144.321.321.321h1.704a.321.321 0 00.322-.321v-1.465c0-.177.144-.321.321-.321h1.503a.321.321 0 00.321-.322v-1.704a.322.322 0 00-.321-.321z"></path>
    <path fill="#FC488D" d="M9.576 11.523v2.151a7.466 7.466 0 002.347 0v-2.15H9.576z"></path>
    <path fill="#FE9DC2"
        d="M10.75 0a6.357 6.357 0 100 12.715A6.357 6.357 0 0010.75 0zm0 10.368a4.01 4.01 0 110-8.021 4.01 4.01 0 010 8.021z"></path>
    <path fill="#FC488D"
        d="M10.157 2.391a4.01 4.01 0 100 7.934 4.011 4.011 0 010-7.934zM10.75 0c-.2 0-.398.01-.593.028a6.358 6.358 0 010 12.66A6.357 6.357 0 1010.75 0z"></path>
</svg>