<svg width="50" height="50" viewBox="0 0 50 50" fill="none" xmlns="http://www.w3.org/2000/svg">
    <g clip-path="url(#clip0_43_2491)">
        <path fill-rule="evenodd" clip-rule="evenodd"
            d="M25 0C38.807 0 50 11.193 50 25C50 38.807 38.807 50 25 50C11.193 50 0 38.807 0 25C0 11.193 11.193 0 25 0Z"
            fill="#68BCAC" />
        <path fill-rule="evenodd" clip-rule="evenodd"
            d="M25.0002 22.228C25.1073 21.9641 25.2198 21.7081 25.3358 21.4616C26.2432 19.5325 26.7235 18.0532 26.8958 16.0258C25.5709 15.8983 24.4295 15.8983 23.1047 16.0258C23.277 18.0532 23.7573 19.5325 24.6647 21.4616C24.7807 21.7081 24.8932 21.9641 25.0002 22.228Z"
            fill="white" />
        <path fill-rule="evenodd" clip-rule="evenodd"
            d="M28.521 15.361C28.3632 18.7346 27.4737 20.626 26.7644 22.1338C25.7833 24.2197 24.7577 27.8264 26.8335 29.6947C26.8099 32.5785 26.8333 37.2201 27.6429 39.8311C27.9657 40.8721 28.6981 41.3211 29.3628 41.3473C30.7028 41.4002 31.2407 39.6363 30.1081 38.9235C29.453 37.1912 29.4636 29.0619 29.4689 28.1899C29.4812 26.1483 29.5101 25.3553 30.8724 23.7145C31.363 23.124 31.869 22.5145 32.2892 21.678C32.5058 21.9166 32.7526 22.1348 33.0269 22.3176C33.8446 25.5135 39.611 24.6873 39.8144 21.375C41.0927 20.5129 41.8597 18.9637 41.8392 17.4297C41.7872 13.5174 37.1108 11.7031 33.8267 11.709C32.6759 11.7112 32.162 11.3895 31.2036 10.8061C27.1351 8.32913 22.8661 8.32913 18.7974 10.8061C17.8394 11.3895 17.3251 11.7112 16.1743 11.709C12.8901 11.7031 8.21358 13.5174 8.16201 17.4297C8.1417 18.9637 8.9085 20.5129 10.1866 21.375C10.3899 24.6873 16.1562 25.5135 16.9739 22.3176C17.2485 22.1346 17.4952 21.9164 17.7122 21.678C18.1321 22.5145 18.6382 23.1239 19.1286 23.7145C20.4909 25.3553 20.5202 26.1483 20.5321 28.1899C20.537 29.0619 20.5481 37.1912 19.8931 38.9235C18.7605 39.6363 19.298 41.4004 20.6384 41.3473C21.3026 41.3211 22.0353 40.8721 22.3581 39.8311C23.1679 37.2201 23.1911 32.5783 23.1679 29.6947C25.2435 27.8266 24.2177 24.2197 23.2366 22.1338C22.5272 20.626 21.6376 18.7348 21.48 15.361C21.4605 14.9477 21.7608 14.5912 22.1714 14.5406C24.3466 14.2711 25.655 14.2711 27.8302 14.5406C28.2399 14.5912 28.5405 14.9477 28.521 15.361ZM10.788 17.4502C10.7833 18.0438 11.0355 18.6885 11.4958 19.0762C13.194 18.0946 15.7175 18.7319 16.6929 20.4475C16.8442 20.2557 16.9689 20.0483 17.0605 19.8438C16.8692 19.0239 16.7474 18.0362 16.7282 16.8123C16.7134 15.8473 16.0153 14.8656 15.0075 14.8852C13.5161 14.9145 10.803 15.5049 10.788 17.4502ZM39.2126 17.4502C39.2171 18.0438 38.9653 18.6885 38.5048 19.0762C36.8067 18.0946 34.2829 18.7319 33.3077 20.4475C33.1565 20.2557 33.0317 20.0483 32.9399 19.8438C33.1313 19.0239 33.2532 18.0362 33.2724 16.8123C33.2872 15.8473 33.9853 14.8656 34.9929 14.8852C36.4845 14.9145 39.1976 15.5049 39.2126 17.4502Z"
            fill="white" />
    </g>
    <defs>
        <clipPath id="clip0_43_2491">
            <rect width="50" height="50" fill="white" />
        </clipPath>
    </defs>
</svg>
    