<svg width="32" height="32" viewBox="0 0 32 32" fill="none" xmlns="http://www.w3.org/2000/svg">
<path d="M29.3205 6.92642L27.4642 26.1148C27.3318 27.4831 26.1819 28.5271 24.8072 28.5271H7.19244C5.81774 28.5271 4.66783 27.4831 4.53546 26.1148L2.67915 6.92642C2.52741 5.35792 3.7603 4 5.33613 4H26.6635C28.2394 4 29.4723 5.35792 29.3205 6.92642Z" fill="#2D87F3"/>
<path d="M25.6028 9.66364L23.9401 14.0276C23.7087 14.6356 23.0523 14.98 22.4281 14.8024C20.2865 14.1836 18.1449 13.8877 16.0033 13.9146C15.5675 13.9146 15.1316 13.9361 14.7011 13.9629C13.1514 14.0759 11.6018 14.3557 10.0521 14.8024C9.42789 14.98 8.77141 14.6356 8.54003 14.0276L6.88271 9.66902C6.61906 8.98564 6.99572 8.2216 7.70062 8.00642C8.29253 7.81803 8.87903 7.65119 9.47095 7.51129C9.82068 7.41985 10.1705 7.33381 10.5256 7.26917C11.1067 7.14004 11.6879 7.03245 12.269 6.95165C12.6295 6.89254 12.99 6.84406 13.3505 6.81175C14.0608 6.73108 14.7711 6.67722 15.4814 6.6612C15.8419 6.64491 16.2024 6.63965 16.5576 6.64491C18.3581 6.66689 20.1499 6.85096 22.003 7.25301C22.3527 7.32303 22.7079 7.40908 23.0577 7.49513C23.6334 7.64581 24.2145 7.81265 24.7903 7.99564C25.4898 8.2216 25.8665 8.97487 25.6028 9.66364Z" fill="white"/>
<path d="M18.0745 10.6164L16.0028 13.915C15.567 13.915 15.1311 13.9365 14.7007 13.9633L17.1597 10.046C17.3212 9.79313 17.6548 9.71785 17.9023 9.87379C18.1552 10.0299 18.2305 10.3635 18.0745 10.6164Z" fill="#FF6F4D"/>
<path d="M16.5576 6.64503V8.32931C16.5576 8.62528 16.3155 8.8674 16.0195 8.8674C15.7236 8.8674 15.4814 8.62528 15.4814 8.32931V6.66132C15.842 6.64503 16.2025 6.63977 16.5576 6.64503Z" fill="#2B62CD"/>
<path d="M10.6388 9.27634C10.5797 9.2925 10.5204 9.30327 10.4666 9.30327C10.2407 9.30327 10.0308 9.16336 9.95545 8.93741L9.47119 7.5114C9.82093 7.41997 10.1707 7.33392 10.5258 7.26929L10.9724 8.59296C11.0693 8.87278 10.9186 9.17952 10.6388 9.27634Z" fill="#2B62CD"/>
<path d="M13.4044 8.79251C13.3506 8.80854 13.2968 8.81406 13.243 8.81406C13.017 8.81406 12.8017 8.66876 12.7318 8.43729L12.269 6.95216C12.6296 6.89305 12.9901 6.84457 13.3506 6.81226L13.7596 8.1199C13.8456 8.39972 13.6896 8.70633 13.4044 8.79251Z" fill="#2B62CD"/>
<path d="M23.0572 7.49565L22.5299 8.99155C22.4304 9.26352 22.127 9.42391 21.8411 9.31984C21.5613 9.21764 21.416 8.91089 21.5129 8.63108L22.0026 7.25354C22.3523 7.32356 22.7075 7.40961 23.0572 7.49565Z" fill="#2B62CD"/>
<path d="M20.297 6.94131L19.7481 8.50171C19.6438 8.78679 19.3357 8.93042 19.0594 8.82987C18.7796 8.73305 18.6343 8.42105 18.7311 8.14123L19.2047 6.80127C19.5706 6.83897 19.9311 6.88745 20.297 6.94131Z" fill="#2B62CD"/>
</svg>
