<svg width="50" height="50" viewBox="0 0 50 50" fill="none" xmlns="http://www.w3.org/2000/svg">
    <g clip-path="url(#clip0_43_2484)">
        <path
            d="M25 0C38.8068 0 50 11.193 50 25C50 38.807 38.8068 50 25 50C11.193 50 0 38.807 0 25C0 11.193 11.193 0 25 0Z"
            fill="#BF6149" />
        <path
            d="M39.6739 16.2491C36.7239 16.4936 33.7228 16.5655 30.814 16.6252C30.7972 16.5745 30.7813 16.5239 30.7646 16.4737C30.6614 15.7483 30.9761 14.7186 31.2019 13.9946C34.3085 13.9297 37.5122 13.8407 40.6233 13.528C41.8628 13.4036 42.8974 14.5321 42.5636 15.7559C41.9997 17.8235 41.1769 19.8036 39.8474 21.6135C38.5192 26.0666 35.5321 29.9668 31.5644 32.3832C31.6976 31.2422 31.8147 30.0926 31.9001 28.9407C32.9257 28.1161 33.8464 27.1672 34.6437 26.1205C33.8399 26.5721 32.9595 26.994 31.9944 27.383C32.039 26.4243 32.0562 25.4661 32.0372 24.5114C35.7397 22.8061 38.2952 20.2965 39.6739 16.2491ZM25.0315 16.7819C20.6583 16.9737 16.8458 17.4248 14.3378 18.8258C12.0546 20.1012 11.5728 22.5657 11.5731 24.9858C11.5733 25.9795 11.9919 29.352 12.5364 32.3102C12.5944 32.626 12.6536 32.9356 12.7128 33.2346C14.4169 31.7707 17.3095 31.0018 20.3423 30.1955C22.5831 29.6002 24.9157 28.9799 26.696 28.0559C26.6319 29.0635 26.5384 30.0688 26.4294 31.0606C24.7296 31.7463 22.8429 32.2477 21.0104 32.7348C17.5817 33.6459 14.3864 34.4955 13.8696 36.2442C13.5438 37.3469 14.5626 37.3512 15.4394 37.2354C16.2474 37.1284 17.1743 36.8133 18.104 36.3871C20.2286 35.4139 22.2618 33.9547 22.9522 33.0202C23.1632 32.7346 23.4608 32.5065 23.8388 32.4446C24.7192 32.3002 25.5513 32.1028 26.3378 31.8616C26.2241 32.8211 26.0993 33.7651 25.9761 34.6834C25.5755 34.7823 25.1653 34.8711 24.7454 34.9496C23.6571 36.1414 21.4419 37.7418 19.1933 38.7721C18.0448 39.2983 16.8636 39.6926 15.7788 39.836C14.5144 40.0028 13.3542 39.8338 12.445 39.1717C12.0067 38.8526 11.6458 38.4332 11.3808 37.9C10.2085 35.9666 8.95205 27.3457 8.95166 24.9856C8.95127 21.5405 9.86982 18.3168 13.0632 16.5332C15.6075 15.1123 19.0456 14.537 22.9524 14.2713L23.1151 14.4496C23.772 15.1719 24.4673 15.9446 25.0315 16.7819Z"
            fill="white" />
        <path
            d="M26.5347 16.1949C25.4967 14.5713 24.1519 13.5926 23.1429 12.0131C22.831 11.5254 22.9756 10.8772 23.4637 10.5658C23.9519 10.2549 24.5592 10.4268 24.9109 10.8865C25.3242 11.427 25.9183 12.0842 26.3824 12.5768C27.4881 13.751 27.9525 12.5629 28.1174 11.3141C28.1929 10.7398 28.7189 10.3346 29.2933 10.4096C29.8678 10.4848 30.2736 11.0113 30.1978 11.5855C30.1164 12.2063 29.9322 12.7604 29.747 13.3561C29.4072 14.4506 28.8814 15.767 29.2295 16.8625C31.173 22.9826 30.3293 29.8545 29.4963 36.1022C29.4197 36.6762 28.8947 37.0816 28.3203 37.0064C27.7459 36.9318 27.3392 36.4051 27.4156 35.8307C28.1179 30.5621 28.9611 24.634 27.7623 19.3959C27.4695 18.1166 27.2359 17.291 26.5347 16.1949Z"
            fill="white" />
    </g>
    <defs>
        <clipPath id="clip0_43_2484">
            <rect width="50" height="50" fill="white" />
        </clipPath>
    </defs>
</svg>
    