<svg width="18" height="18" viewBox="0 0 18 18" fill="none" xmlns="http://www.w3.org/2000/svg">
<path d="M9 18C13.9706 18 18 13.9706 18 9C18 4.02944 13.9706 0 9 0C4.02944 0 0 4.02944 0 9C0 13.9706 4.02944 18 9 18Z" fill="#2685F1"/>
<path fill-rule="evenodd" clip-rule="evenodd" d="M8.17379 8.07193V10.9513C8.17379 11.0506 8.16138 11.1529 8.16138 11.2401C8.12723 11.7967 7.56232 12.3443 6.88255 12.3232C6.5256 12.3112 6.24935 12.0555 6.23693 11.7095C6.21521 11.3966 6.33005 11.1529 6.65286 11.0175C6.74598 10.9723 6.78012 10.9182 6.78012 10.8279C6.76771 10.7828 6.78012 10.7286 6.78012 10.6835V5.46939V5.37011C6.79254 5.24675 6.74598 5.18056 6.63113 5.12339C6.25245 4.94588 6.12519 4.49758 6.34247 4.15158C6.46973 3.94999 6.65286 3.83867 6.88255 3.82664C7.36677 3.80558 7.73614 4.01619 7.99997 4.39528C8.1024 4.55174 8.17379 4.72022 8.17379 4.90977C8.18621 5.00906 8.18621 5.11136 8.18621 5.19861C8.17379 6.15237 8.17379 7.11215 8.17379 8.07193Z" fill="white"/>
<path fill-rule="evenodd" clip-rule="evenodd" d="M3.14941 8.06205V5.0632C3.14941 4.77473 3.22974 4.5073 3.42438 4.28193C3.67772 3.98145 4.0083 3.8252 4.4223 3.8252C4.74361 3.83721 4.9846 4.0145 5.06492 4.31499C5.14525 4.61547 5.03094 4.92798 4.7776 5.08423C4.75597 5.10527 4.7189 5.11728 4.68491 5.1293C4.59223 5.16236 4.55824 5.21945 4.55824 5.30659V5.45082V10.6793V10.7244C4.54588 10.8686 4.57987 10.9707 4.74052 11.0369C5.00313 11.1601 5.1298 11.4395 5.09582 11.716C5.06183 11.9954 4.86719 12.2298 4.60149 12.2959C4.38523 12.353 4.17823 12.3169 3.97123 12.2388C3.39967 12.0285 3.15868 11.5026 3.15868 11.103C3.16177 10.0903 3.14941 9.07769 3.14941 8.06205Z" fill="white"/>
<path fill-rule="evenodd" clip-rule="evenodd" d="M12.5137 12.5112C12.1943 12.4633 12.0238 12.4483 11.7541 12.4334C11.7076 12.4214 11.72 12.3915 11.6735 12.4035C11.5712 12.9929 11.1774 13.4536 10.6163 13.675C10.3868 13.7647 10.1574 13.8306 9.91555 13.8634C9.2614 13.9622 8.59169 13.9622 7.9375 13.8634C7.6492 13.8186 7.36393 13.7408 7.0973 13.6091C6.74076 13.4327 6.46482 13.1753 6.31603 12.8104C6.3036 12.7894 6.22302 12.4783 6.17652 12.3676C6.06177 12.1133 5.77347 11.9667 5.4975 12.0355C5.22157 12.1013 5.02624 12.3347 5.03864 12.6129C5.05105 12.7685 5.15339 13.1454 5.16576 13.1664C5.2464 13.3997 5.36108 13.6091 5.5223 13.8096C5.83234 14.2105 6.23539 14.4768 6.69425 14.6742C7.21201 14.8956 7.76388 15.0063 8.32815 15.0512C8.93893 15.096 9.5373 15.0841 10.145 14.9734C10.6163 14.8837 11.0875 14.752 11.5122 14.5187C12.3183 14.0639 12.7555 13.3758 12.8454 12.4872C12.7338 12.5202 12.5137 12.5112 12.5137 12.5112Z" fill="white"/>
<path fill-rule="evenodd" clip-rule="evenodd" d="M14.1052 9.35095C14.0928 9.56112 14.0587 9.76229 14.0029 9.97546C13.9347 10.1976 13.8292 10.4108 13.6804 10.588C13.3578 10.9903 12.933 11.1674 12.4151 11.1554C11.7235 11.1434 11.2429 10.8312 10.9545 10.2187C10.8614 10.0175 10.7932 9.79531 10.7715 9.58514C10.7126 9.14077 10.725 8.6934 10.8738 8.26105C10.9545 8.05087 11.0568 7.84971 11.2088 7.68157C11.5995 7.24621 12.105 7.09008 12.6942 7.18015C13.3144 7.27023 13.7176 7.62452 13.9378 8.18298C14.0959 8.54928 14.1424 8.93961 14.1052 9.35095ZM15.4884 8.60631C15.4202 8.08388 15.2589 7.58247 14.9705 7.12609C14.5457 6.46855 13.9471 6.03319 13.1657 5.85605C12.8431 5.77798 12.5113 5.77798 12.1764 5.78999C11.7391 5.81101 11.3236 5.9251 10.9453 6.13528C10.3591 6.45954 9.94358 6.93694 9.67998 7.52843C9.40398 8.14093 9.30164 8.78646 9.35747 9.45601C9.39158 9.85834 9.4598 10.2246 9.61179 10.603C9.96842 11.4947 10.5886 12.1282 11.5562 12.3954C11.5903 12.4074 12.7749 12.5516 12.8555 12.4855C13.6029 12.3954 14.2355 12.0832 14.7193 11.5157C15.017 11.1704 15.2248 10.7681 15.3644 10.3447C15.5101 9.77428 15.569 9.20681 15.4884 8.60631Z" fill="white"/>
<path fill-rule="evenodd" clip-rule="evenodd" d="M12.4302 9.81687C12.0586 9.81687 11.7754 9.53552 11.7754 9.17507C11.7754 8.82628 12.0678 8.5332 12.4302 8.5332C12.8018 8.5332 13.0972 8.82628 13.0972 9.18676C13.1094 9.49156 12.8383 9.8286 12.4302 9.81687Z" fill="#333"/>
</svg>
