<svg width="28" height="28" viewBox="0 0 28 28" fill="none" xmlns="http://www.w3.org/2000/svg">
<path d="M27.5 13C27.5 13.1339 27.4978 13.2673 27.4934 13.4001C27.4917 13.4543 27.2974 13.362 27.2949 13.416C27.2755 13.8371 27.2219 14.1792 27.1602 14.5879C27.1464 14.6789 27.3362 14.9895 27.3204 15.0799C26.3355 20.716 21.4181 25 15.5 25C8.87258 25 3.5 19.6274 3.5 13C3.5 6.37258 8.87258 1 15.5 1C22.1274 1 27.5 6.37258 27.5 13Z" fill="white"/>
<path d="M27.4936 13.4003C27.4749 13.9712 27.4163 14.5321 27.3206 15.0801C27.3007 15.0555 27.2831 15.0287 27.2683 14.9999L25.5848 11.822L24.0916 15.5549C24.0204 15.7328 23.8481 15.8495 23.6564 15.8495C23.4647 15.8495 23.2924 15.7328 23.2211 15.5549L22.2836 13.2111C22.1875 12.9707 22.3044 12.698 22.5448 12.6018C22.7851 12.5057 23.0579 12.6226 23.1541 12.8629L23.6564 14.1186L25.0962 10.5192C25.1644 10.3487 25.3258 10.2337 25.5093 10.225C25.6925 10.2172 25.8643 10.3156 25.9483 10.4789L27.4936 13.4003Z" fill="#91CAFF"/>
<path d="M22.661 15.0206C21.7099 17.3166 17.458 20.7479 14.9947 22.3026C14.4442 22.6501 13.7428 22.6501 13.1923 22.3026C10.729 20.7479 6.47711 17.3166 5.52597 15.0206C2.40053 7.47626 10.3012 4.88416 14.0935 8.4963C17.8858 4.88416 25.7865 7.47626 22.661 15.0206Z" fill="#FF5331"/>
<path d="M17.7872 20.2954C16.7839 21.0933 15.7949 21.7965 14.9947 22.3016C14.4441 22.6491 13.7428 22.6491 13.1923 22.3016C10.729 20.7468 6.47711 17.3155 5.52597 15.0196C4.06089 11.4832 5.01864 9.03484 6.84025 7.80371C6.76614 10.6918 8.09828 13.9531 10.6927 16.5475C12.8029 18.6578 15.3543 19.9328 17.7872 20.2954Z" fill="#E64728"/>
<path d="M21.236 12.4863C20.329 13.0639 16.9374 10.2611 17.3385 9.23451C17.5795 8.61763 19.3164 8.31829 20.498 9.21145C21.7893 10.1875 21.804 12.1245 21.236 12.4863Z" fill="#FEAA96"/>
<path d="M12.4062 13.4219C12.4062 14.0691 11.8816 14.5938 11.2344 14.5938C10.5872 14.5938 10.0625 14.0691 10.0625 13.4219C10.0625 12.7747 10.5872 12.25 11.2344 12.25C11.8816 12.25 12.4062 12.7747 12.4062 13.4219Z" fill="#D84023"/>
<path d="M11.1741 13.4723C10.9337 13.5683 10.661 13.4516 10.5648 13.2112L10.0625 11.9555L8.62273 15.555C8.55453 15.7254 8.39309 15.8404 8.20963 15.8491C8.20222 15.8494 8.19481 15.8496 8.18741 15.8496C8.01247 15.8496 7.85122 15.7519 7.77064 15.5952L6.49522 13.1153H3.96875C3.70986 13.1153 3.5 12.9053 3.5 12.6465C3.5 12.3877 3.70986 12.1778 3.96875 12.1778H6.78125C6.95689 12.1778 7.11777 12.276 7.19811 12.4321L8.13411 14.2522L9.62727 10.5193C9.69847 10.3413 9.87083 10.2246 10.0625 10.2246C10.2542 10.2246 10.4265 10.3413 10.4977 10.5193L11.4352 12.863C11.5314 13.1034 11.4145 13.3762 11.1741 13.4723Z" fill="#91CAFF"/>
<path d="M22.5525 17.4593V19.435C22.5525 19.6939 22.3427 19.9037 22.0838 19.9037H20.0034V21.9841C20.0034 22.243 19.7935 22.4529 19.5347 22.4529H17.5589C17.3 22.4529 17.0901 22.243 17.0901 21.9841V19.9037H15.0098C14.7509 19.9037 14.541 19.6939 14.541 19.435V17.4593C14.541 17.2004 14.7509 16.9905 15.0098 16.9905H17.0901V14.9102C17.0901 14.6513 17.3 14.4414 17.5589 14.4414H19.5347C19.7935 14.4414 20.0034 14.6513 20.0034 14.9102V16.9905H22.0838C22.3426 16.9905 22.5525 17.2004 22.5525 17.4593Z" fill="#BCDEFF"/>
<path d="M18.0021 16.9915H17.0901V14.9111C17.0901 14.6522 17.3 14.4424 17.5589 14.4424H18.9396C18.6807 14.4424 18.4709 14.6522 18.4709 14.9111V16.5227C18.4709 16.7816 18.261 16.9915 18.0021 16.9915ZM16.3905 16.9915H15.0098C14.7509 16.9915 14.541 17.2014 14.541 17.4602V19.436C14.541 19.6949 14.7509 19.9047 15.0098 19.9047H16.3905C16.1316 19.9047 15.9218 19.6949 15.9218 19.436V17.4602C15.9218 17.2014 16.1316 16.9915 16.3905 16.9915ZM18.4709 21.9851V20.3735C18.4709 20.1146 18.261 19.9047 18.0021 19.9047H17.0901V21.9851C17.0901 22.244 17.3 22.4538 17.5589 22.4538H18.9396C18.6807 22.4538 18.4709 22.244 18.4709 21.9851Z" fill="#91CAFF"/>
<path d="M28 14C28 21.732 21.732 28 14 28C6.26801 28 0 21.732 0 14C0 6.26801 6.26801 0 14 0C21.732 0 28 6.26801 28 14ZM2.8 14C2.8 20.1856 7.81441 25.2 14 25.2C20.1856 25.2 25.2 20.1856 25.2 14C25.2 7.81441 20.1856 2.8 14 2.8C7.81441 2.8 2.8 7.81441 2.8 14Z" fill="#E4E8EC"/>
<path d="M14 1.4C14 0.626801 14.6284 -0.00725199 15.3977 0.0699401C17.3056 0.26137 19.159 0.843284 20.8407 1.78506C22.9307 2.9555 24.6854 4.64261 25.937 6.68502C27.1886 8.72743 27.8952 11.0568 27.9892 13.4504C28.0833 15.8439 27.5616 18.2216 26.4741 20.3559C25.3866 22.4902 23.7697 24.3098 21.778 25.6406C19.7863 26.9714 17.4864 27.7689 15.0984 27.9568C12.7104 28.1448 10.3141 27.7169 8.13877 26.714C6.3884 25.9071 4.82819 24.7496 3.55189 23.3186C3.03724 22.7416 3.18086 21.8606 3.80639 21.4061C4.43192 20.9516 5.30156 21.0975 5.83048 21.6615C6.81507 22.7114 7.99596 23.565 9.31101 24.1712C11.0513 24.9735 12.9683 25.3158 14.8787 25.1655C16.7892 25.0151 18.629 24.3771 20.2224 23.3125C21.8157 22.2478 23.1093 20.7921 23.9793 19.0847C24.8493 17.3772 25.2666 15.4751 25.1914 13.5603C25.1161 11.6455 24.5508 9.78194 23.5496 8.14802C22.5483 6.51409 21.1445 5.1644 19.4726 4.22804C18.2091 3.52049 16.8245 3.06684 15.3964 2.88739C14.6292 2.79098 14 2.1732 14 1.4Z" fill="#2685F1"/>
</svg>
