<svg width="81" height="80" viewBox="0 0 81 80" fill="none" xmlns="http://www.w3.org/2000/svg">
    <g clip-path="url(#clip0_6:36684)">
        <path
            d="M0.5 32.9407V56.4701V79.9995H25.2059H49.9118L51.4804 64.3132L49.9118 49.9995L38.1471 32.9407L18.9314 31.3721L0.5 32.9407Z"
            fill="#45A4FF"></path>
        <path
            d="M80.5001 32.9407L71.4805 31.3721L61.6766 32.9407L49.9119 49.9995V56.4701V79.9995H65.206H80.5001V56.4701V32.9407Z"
            fill="#2B94FF"></path>
        <path
            d="M38.1467 32.9407V45.8819V58.823L44.0291 54.4113L49.9114 49.9995L51.4801 41.4701L49.9114 32.9407L44.0291 31.3721L38.1467 32.9407Z"
            fill="#2ED69E"></path>
        <path
            d="M49.9119 32.9407V41.4701V49.9995L55.7942 54.4113L61.6766 58.823V45.8819V32.9407L55.7942 31.3721L49.9119 32.9407Z"
            fill="#00CB8A"></path>
        <path d="M33.441 51.7645H21.6763H9.91162V49.4115V47.0586H21.6763H33.441V49.4115V51.7645Z"
            fill="#F7F9FC"></path>
        <path d="M33.441 61.1766H21.6763H9.91162V58.8236V56.4707H21.6763H33.441V58.8236V61.1766Z"
            fill="#F7F9FC"></path>
        <path d="M49.9116 70.5877H29.9116H9.91162V68.2348V65.8818H29.9116H49.9116V68.2348V70.5877Z"
            fill="#F7F9FC"></path>
        <path
            d="M43.8275 9.41177L39.1216 4.70588L34.4158 0H17.4578H0.5V16.4706V32.9412H9.91177L49.9118 18.8235L51.4804 14.1176L49.9118 9.41177H46.8696H43.8275Z"
            fill="#45A4FF"></path>
        <path d="M80.5001 9.41211H65.206H49.9119V18.8239L71.0884 32.9415H80.5001V21.1768V9.41211Z"
            fill="#2685F1"></path>
        <path
            d="M9.91162 18.8232V25.8821V32.9409H29.9116H49.9116L51.4803 25.8821L49.9116 18.8232H29.9116H9.91162Z"
            fill="white"></path>
        <path d="M71.0883 18.8232H60.5001H49.9119V25.8821V32.9409H60.5001H71.0883V25.8821V18.8232Z"
            fill="#F7F9FC"></path>
    </g>
    <defs>
        <clipPath id="clip0_6:36684">
            <rect width="80" height="80" fill="white" transform="translate(0.5)"></rect>
        </clipPath>
    </defs>
</svg>