<svg width="25" height="24" viewBox="0 0 25 24" fill="none" xmlns="http://www.w3.org/2000/svg">
<g clip-path="url(#clip0)">
<path d="M12.666 10.0908H6.00443C2.96439 10.0908 0.5 12.5298 0.5 15.5386C0.5 17.715 1.78974 19.5933 3.65389 20.4659C4.40249 20.8164 4.88268 21.5595 4.88268 22.3791V23.5478C4.88268 23.9922 5.46287 24.1693 5.71557 23.8022L7.01957 21.9094C7.41753 21.3319 8.0781 20.9863 8.78434 20.9863H12.666C15.706 20.9863 18.1704 18.5473 18.1704 15.5386C18.1702 12.5298 15.7058 10.0908 12.666 10.0908Z" fill="#E3F2FF"/>
<path d="M5.75731 20.4659C3.89316 19.5933 2.60342 17.715 2.60342 15.5386C2.60342 12.5298 5.06781 10.0908 8.10785 10.0908H6.00443C2.96439 10.0908 0.5 12.5298 0.5 15.5386C0.5 17.715 1.78953 19.5933 3.65368 20.4659C4.40249 20.8164 4.88247 21.5595 4.88247 22.3791V23.5478C4.88247 23.9922 5.46267 24.1693 5.71557 23.8022L6.95138 22.0082C6.83072 21.3407 6.39082 20.7624 5.75731 20.4659Z" fill="#BCDEFF"/>
<path d="M6.62491 15.6424C6.62491 16.1978 6.17013 16.6481 5.60894 16.6481C5.04776 16.6481 4.59277 16.1978 4.59277 15.6424C4.59277 15.087 5.04776 14.6367 5.60894 14.6367C6.17013 14.6367 6.62491 15.087 6.62491 15.6424Z" fill="#2685F1"/>
<path d="M10.3517 15.6424C10.3517 16.1978 9.89669 16.6481 9.33551 16.6481C8.77432 16.6481 8.31934 16.1978 8.31934 15.6424C8.31934 15.087 8.77432 14.6367 9.33551 14.6367C9.89669 14.6367 10.3517 15.087 10.3517 15.6424Z" fill="#2685F1"/>
<path d="M14.0763 15.6424C14.0763 16.1978 13.6213 16.6481 13.0601 16.6481C12.4989 16.6481 12.0439 16.1978 12.0439 15.6424C12.0439 15.087 12.4989 14.6367 13.0601 14.6367C13.6213 14.6367 14.0763 15.087 14.0763 15.6424Z" fill="#2685F1"/>
<path d="M12.3345 0H18.9958C22.0359 0 24.5003 2.43901 24.5003 5.44775C24.5003 7.62419 23.2107 9.50228 21.3466 10.3751C20.5978 10.7256 20.1178 11.4687 20.1178 12.2883V13.457C20.1178 13.9012 19.5376 14.0785 19.2847 13.7114L17.9807 11.8184C17.5829 11.2409 16.9224 10.8955 16.2159 10.8955H12.3345C9.29447 10.8955 6.83008 8.45649 6.83008 5.44775C6.83008 2.43901 9.29447 0 12.3345 0Z" fill="#2685F1"/>
<path d="M18.4813 10.2027H14.5997C11.5597 10.2027 9.09528 7.76344 9.09528 4.7549C9.09528 2.77151 10.1664 1.03575 11.7673 0.0830078C8.99383 0.363984 6.83008 2.68296 6.83008 5.50213C6.83008 8.51087 9.29447 10.9499 12.3345 10.9499H16.2161C16.9224 10.9499 17.5829 11.2955 17.9807 11.873L19.2847 13.7658C19.5376 14.1328 20.1178 13.9558 20.1178 13.5114V12.3427C20.1178 11.9791 20.2126 11.6306 20.3833 11.3247L20.2459 11.1257C19.8481 10.548 19.1876 10.2027 18.4813 10.2027Z" fill="#2C74DF"/>
<path d="M20.4064 5.5516C20.4064 6.10701 19.9514 6.55731 19.3902 6.55731C18.829 6.55731 18.374 6.10701 18.374 5.5516C18.374 4.9962 18.829 4.5459 19.3902 4.5459C19.9514 4.5459 20.4064 4.9962 20.4064 5.5516Z" fill="#E3F2FF"/>
<path d="M16.6806 5.5516C16.6806 6.10701 16.2258 6.55731 15.6646 6.55731C15.1034 6.55731 14.6484 6.10701 14.6484 5.5516C14.6484 4.9962 15.1034 4.5459 15.6646 4.5459C16.2258 4.5459 16.6806 4.9962 16.6806 5.5516Z" fill="#E3F2FF"/>
<path d="M12.9552 5.5516C12.9552 6.10701 12.5002 6.55731 11.939 6.55731C11.3778 6.55731 10.9229 6.10701 10.9229 5.5516C10.9229 4.9962 11.3778 4.5459 11.939 4.5459C12.5002 4.5459 12.9552 4.9962 12.9552 5.5516Z" fill="#E3F2FF"/>
</g>
<defs>
<clipPath id="clip0">
<rect width="24" height="24" fill="white" transform="translate(0.5)"/>
</clipPath>
</defs>
</svg>
