<svg width="24" height="24" viewBox="0 0 24 24" fill="none" xmlns="http://www.w3.org/2000/svg">
<path d="M11.9998 2C6.8148 2 2.5518 5.947 2.0498 11H8.9998V9.6C8.9998 9.277 9.19481 8.985 9.4938 8.861C9.79381 8.738 10.1368 8.806 10.3658 9.034L12.7658 11.434C13.0788 11.747 13.0788 12.253 12.7658 12.565L10.3658 14.965C10.2118 15.119 10.0078 15.2 9.7998 15.2C9.6968 15.2 9.5928 15.18 9.4938 15.139C9.19481 15.015 8.9998 14.723 8.9998 14.4V13H2.0498C2.5518 18.053 6.8138 22 11.9998 22C17.5228 22 21.9998 17.523 21.9998 12C21.9998 6.477 17.5228 2 11.9998 2Z" fill="#595959"/>
</svg>
