<svg width="50" height="50" viewBox="0 0 50 50" fill="none" xmlns="http://www.w3.org/2000/svg">
    <path
        d="M25 0C38.807 0 50 11.193 50 25C50 38.807 38.807 50 25 50C11.193 50 0 38.807 0 25C0 11.193 11.193 0 25 0Z"
        fill="#837D6E" />
    <path
        d="M25.0559 14.2268C25.4095 14.5629 25.885 14.9334 26.1942 15.5922C26.6323 16.5301 25.2071 17.1967 24.7692 16.259C24.3602 15.3856 23.1923 15.1645 23.2558 14.1043C23.2903 13.5291 23.5593 12.8317 24.0749 12.227C23.3085 12.2203 22.6013 12.2772 22.0179 12.4137C22.1888 13.3324 22.0382 14.2893 21.4286 15.1461C20.829 15.9895 19.5456 15.0758 20.1456 14.2324C20.5231 13.7016 20.5784 13.1227 20.4392 12.5592C18.5454 12.7155 16.3335 13.543 14.6347 14.5002C15.2241 14.849 15.6698 15.4281 15.9968 16.1725C16.2401 16.0766 16.5171 15.9772 16.8268 15.8826C17.8167 15.5824 18.2731 17.0887 17.2831 17.3893C16.7429 17.5535 16.3239 17.7283 15.8811 17.9405C15.4464 18.1489 14.9222 17.9117 14.7868 17.4526C14.4968 16.4686 14.0347 15.4479 12.8495 15.7963C12.7888 15.8141 12.7274 15.8348 12.6659 15.8582C11.9852 16.451 11.412 16.9803 11.0634 17.4932C11.0374 17.5315 11.0124 17.5701 10.9886 17.6088C11.5501 17.4842 12.1819 17.5131 12.6735 17.7246C13.0737 17.8967 13.2589 18.3612 13.0868 18.7619C12.9147 19.1625 12.4507 19.3477 12.0503 19.1754C11.522 18.9479 10.736 19.2446 10.5253 19.802C10.4927 20.1998 10.5688 20.6281 10.762 21.0188C10.9929 21.4858 11.4005 21.8942 12.003 22.1239C12.0735 22.1506 12.1397 22.1848 12.2011 22.224C12.7929 22.5705 13.4626 22.8506 14.1706 23.0471C14.1286 22.5406 14.2058 22.0865 14.4196 21.6655C14.8899 20.7399 16.2966 21.4557 15.8261 22.3815C15.6856 22.6574 15.7265 22.9879 15.8128 23.341C16.7364 23.4168 17.6651 23.342 18.519 23.0821C18.6184 22.9754 18.7216 22.8731 18.8284 22.7742C18.0245 21.941 17.8452 21.1756 17.9116 19.9742C17.9684 18.9389 19.5417 19.0254 19.4849 20.0608C19.435 20.9612 19.5175 21.2834 20.1401 21.8531C20.5888 21.617 21.0675 21.4305 21.569 21.2934C21.1177 20.1789 21.2647 19.1516 21.7292 17.9932C22.1147 17.0309 23.5767 17.6174 23.1913 18.5797C22.8046 19.5446 22.7206 20.2293 23.2261 21.0996C23.8671 21.1311 24.672 21.2789 25.2612 21.2651C25.7079 21.2541 26.1138 20.8625 26.885 20.7143C26.6487 19.6287 26.5583 18.6086 27.2071 17.4719C27.722 16.5717 29.0913 17.3557 28.5766 18.2561C28.1468 19.0094 28.2909 19.8323 28.5077 20.7465C28.702 20.7807 28.9112 20.8254 29.1372 20.8819C29.7007 21.0231 30.0431 21.594 29.9022 22.1578C29.7614 22.7215 29.1905 23.0643 28.6274 22.9233C27.1866 22.5625 27.0315 22.911 26.2784 23.1869C26.319 23.4701 26.4276 23.6448 26.7058 23.8506C27.0548 24.1098 27.128 24.6033 26.8692 24.9528C26.6101 25.3024 26.1171 25.3756 25.7681 25.1164C25.1272 24.6416 24.802 24.0721 24.713 23.3526C24.0249 23.3117 23.0636 23.125 22.5063 23.2356C21.9558 23.3455 21.4528 23.5229 21.0149 23.7678C20.6134 23.992 20.2571 24.2776 19.9591 24.624C19.7302 25.0045 19.5747 25.369 19.486 25.7078C19.3339 26.2897 19.3401 26.9356 19.6925 27.3383C20.4356 26.3547 21.2296 26.1483 22.0567 25.9182C22.0995 25.5682 22.2212 25.1615 22.344 24.8317C22.4956 24.4242 22.9487 24.217 23.3559 24.3688C23.763 24.5203 23.9702 24.974 23.8184 25.3815C23.5296 26.1578 23.6065 26.0887 23.9979 26.4199C24.3708 26.6434 24.4925 27.127 24.2694 27.5002C24.0464 27.8737 23.563 27.9951 23.1899 27.7719C22.9378 27.6203 22.7599 27.511 22.6163 27.3977C22.011 27.5703 21.455 27.6739 20.9433 28.318C21.1952 29.0176 22.822 28.7891 23.3499 28.6399C24.4634 28.3248 25.7241 28.0364 26.3659 27.976C27.194 27.8729 27.7526 27.9053 28.1798 28.0043C28.2405 27.9985 29.2581 27.4928 28.9263 26.9369C28.3954 26.0489 29.7464 25.2403 30.2772 26.1283C30.7696 26.9533 30.614 27.9405 29.9517 28.659C30.7792 28.6639 31.6227 28.6465 32.4474 28.6797C32.3243 27.6686 33.0843 26.5041 33.0392 26.1678C32.9194 25.2744 32.254 24.901 31.4645 24.8848C30.7593 24.8703 30.4934 24.4901 30.5061 23.8746C30.514 23.4967 30.703 23.0785 30.8974 22.6475C31.0382 22.3356 31.2614 22.1948 31.2227 22.1033C30.8212 21.1492 32.2708 20.5381 32.6725 21.4922C32.9155 22.0696 32.5688 22.7764 32.2835 23.4096C33.5032 23.6971 34.4132 24.5666 34.5997 25.958C34.6696 26.4795 34.4936 26.9342 34.3065 27.417C34.122 27.8936 33.9169 28.4231 34.4731 28.9319C35.1425 29.0748 35.8999 29.2932 36.8255 29.6258C37.9612 30.0139 38.587 30.5526 39.0985 29.2377C39.361 28.5625 39.47 27.6717 39.478 26.7653C38.7645 27.2895 37.8427 27.6063 36.8692 27.5291C36.4347 27.4949 36.11 27.1149 36.1442 26.6799C36.1782 26.2453 36.5581 25.9205 36.9925 25.9547C38.0188 26.0358 39.1227 25.2963 39.3063 24.4682C39.3505 23.7838 39.2456 22.1854 38.7487 21.7174C37.8913 22.2305 37.03 22.1092 36.3434 23.4416C36.144 23.8285 35.669 23.9807 35.2821 23.7811C34.8956 23.5817 34.7434 23.1063 34.9429 22.719C36.0856 20.502 37.6356 20.7914 38.1452 20.1885C38.1558 20.176 38.1669 20.1637 38.178 20.152C37.9399 19.3637 37.2712 18.3352 36.3052 17.3065C36.1737 17.1664 36.2702 17.2514 36.0841 17.1854C35.2208 16.8791 34.8931 17.9112 33.7444 18.2957C33.7911 18.6742 33.7847 19.1158 33.7522 19.6518C33.6913 20.6869 32.1184 20.5946 32.179 19.559C32.2686 18.0561 32.2534 17.9774 30.9218 17.6545C29.9155 17.411 30.2854 15.8797 31.2917 16.1233C32.0753 16.3139 32.6206 16.5237 33.0099 16.8483C33.5774 16.778 34.0476 16.1604 34.6395 15.8086C33.7768 15.1535 32.8048 14.5793 31.7661 14.1668L31.7091 14.1559C30.9194 14.0004 30.8997 14.916 28.5755 15.3155L28.3354 15.3688C27.321 15.5879 26.9882 14.0446 28.0022 13.8256C28.9075 13.6287 29.2684 13.5803 29.8704 13.2039C29.005 12.9069 27.9218 12.6477 26.7903 12.4686C26.745 12.4615 26.6995 12.4545 26.6542 12.4477C26.2421 12.5428 25.9026 12.7092 25.6329 12.9135C25.1134 13.3063 24.8425 14.024 25.0559 14.2268ZM30.8995 31.6326C31.8868 31.892 33.8673 32.3123 35.2622 32.5182C35.5585 32.2178 35.7595 31.8563 35.6872 31.4531C33.2003 30.619 32.1272 30.7813 30.0966 30.7637C28.7229 30.752 28.453 30.3258 27.853 30.1117C28.7272 32.1701 30.7657 33.7444 33.1054 33.4778C32.1249 33.0539 31.2331 32.4395 30.8995 31.6326ZM28.3964 39.8686C28.0897 39.8686 27.7985 39.6844 27.6714 39.384C26.3493 36.2608 25.3731 35.4612 24.5421 34.7795C24.3981 34.6615 24.2579 34.5467 24.1118 34.418C22.7903 33.2539 23.0091 32.0617 22.8759 30.8623C22.239 30.9305 21.5534 30.9108 20.9472 30.7492C20.21 30.5532 19.5733 30.166 19.1884 29.5139C19.1239 29.4565 17.928 29.0684 17.4573 27.5246C17.2669 26.9006 17.2382 26.1864 17.3964 25.4315C16.6862 25.4979 15.9665 25.4844 15.2583 25.4006C13.7938 25.2272 12.3657 24.7504 11.1737 24.0592C10.0755 23.618 9.31923 22.8406 8.8788 21.9489C8.40224 20.9838 8.30634 19.8785 8.55341 18.9223C8.50907 17.9215 8.80126 17.0912 9.32841 16.3158C9.83134 15.576 10.5106 14.9428 11.3005 14.2551C12.4979 13.2129 14.327 12.1604 16.2636 11.4285C17.9397 10.7951 19.7196 10.3942 21.279 10.4342C22.8296 10.0098 25.0354 10.0647 27.1122 10.3934C29.4184 10.7582 31.6382 11.4809 32.6933 12.277C34.721 13.1127 36.5099 14.453 37.8356 15.8649C39.2597 17.3817 40.1806 19.0422 40.3466 20.3406C41.2669 21.3387 41.3503 22.8106 41.422 24.0817C41.4382 24.3715 41.454 24.6483 41.4823 24.8998C41.7048 26.8832 41.6497 29.9533 40.1749 31.3916C39.5206 32.0297 38.6802 32.2768 37.7575 32.1319C37.3845 34.3453 34.7938 35.6094 32.6362 35.6024C32.0122 35.6004 31.4128 35.5182 30.8446 35.3666C31.2393 36.5246 31.654 37.7594 31.9839 38.767C32.0161 38.8658 32.0472 38.9676 32.0472 39.078C32.0472 39.5145 31.6936 39.8684 31.2577 39.8684L28.3964 39.8686ZM24.4231 30.5244C24.5567 31.5045 24.3544 32.528 25.1542 33.2324C25.2735 33.3377 25.4058 33.4461 25.5411 33.5571C26.461 34.3112 27.5329 35.1899 28.9108 38.2879H30.1708L28.8782 34.4967C28.8165 34.4178 26.6304 33.2547 25.6558 30.2223C25.304 30.2979 24.897 30.3971 24.4231 30.5244Z"
        fill="white" />
</svg>
    