<svg width="50" height="50" viewBox="0 0 50 50" fill="none" xmlns="http://www.w3.org/2000/svg">
    <g clip-path="url(#clip0_43_2423)">
        <path fill-rule="evenodd" clip-rule="evenodd"
            d="M25 0C38.807 0 50 11.193 50 25C50 38.8068 38.807 50 25 50C11.193 50 0 38.8068 0 25C0 11.193 11.193 0 25 0Z"
            fill="#68BCAC" />
        <path fill-rule="evenodd" clip-rule="evenodd"
            d="M30.0342 25.3582C30.7654 22.3591 32.4787 20.4265 33.3316 18.5129C33.6873 17.7148 32.9765 16.8582 32.1265 17.0603C28.5777 17.9037 26.8502 17.2306 23.4543 15.5285C22.2937 14.9466 20.3435 13.8959 19.0123 14.0459C18.4662 14.1076 17.8299 14.3957 17.3693 14.6859C17.0429 14.8912 16.2342 15.5162 16.1912 15.9404C16.0166 17.6589 16.8463 18.9654 17.6912 20.373C18.6615 21.9896 19.5181 23.5175 19.9705 25.375C20.957 23.5492 22.4992 22.2103 25.0004 22.2103C27.2658 22.2107 28.9572 23.4041 30.0342 25.3582Z"
            fill="white" />
        <path
            d="M28.0603 12.5434C29.2767 13.4801 30.8675 14.2924 32.4636 14.8342C28.6544 15.9122 27.3327 15.1555 24.3976 13.684C22.5032 12.7346 20.6089 11.785 18.7765 11.992C16.9056 12.203 14.2899 13.8606 14.0966 15.7655C13.8579 18.1155 14.8601 19.785 15.8858 21.4944C16.6743 22.8079 17.4745 24.1413 17.9079 25.8432C18.8587 29.5776 16.3079 35.1106 19.4989 37.9794C19.7696 37.1686 19.9589 35.6049 20.1642 33.9108C20.6995 29.4901 21.3218 24.3536 25.0003 24.3536C28.6788 24.3536 29.3011 29.4901 29.8364 33.9108C30.0417 35.6049 30.231 37.1686 30.5017 37.9794C33.6929 35.1106 31.1417 29.5776 32.0927 25.8432C32.5259 24.1413 33.3263 22.8079 34.1146 21.4944C35.1403 19.785 36.1425 18.1155 35.9038 15.7655C35.7105 13.8606 33.095 12.203 31.2239 11.992C30.1517 11.871 29.0774 12.1428 28.0603 12.5434ZM18.4884 9.38091C20.8565 9.11373 22.938 10.0331 24.9948 11.0534C27.0198 10.0495 29.1757 9.11724 31.5118 9.38091C34.5511 9.72388 38.1823 12.2374 38.5146 15.5085C38.8405 18.7174 37.6175 20.7549 36.3655 22.8411C35.6806 23.9821 34.9856 25.1401 34.6417 26.4909C34.3874 27.4903 34.5095 28.8958 34.6382 30.3811C34.939 33.8434 35.2712 37.6692 31.7952 40.3141C30.4669 41.3247 29.4485 41.1002 28.6245 40.017C27.7952 38.9274 27.5243 36.6909 27.2251 34.2188C26.8198 30.8729 26.3489 26.985 24.9999 26.985C23.6509 26.985 23.1802 30.8729 22.7747 34.2188C22.4755 36.6907 22.2046 38.9272 21.3755 40.017C20.5511 41.1002 19.5327 41.3245 18.2046 40.3141C14.7286 37.6692 15.0608 33.8432 15.3614 30.3811C15.4903 28.896 15.6126 27.4903 15.3579 26.4909C15.0142 25.1401 14.3192 23.9821 13.6343 22.8411C12.3823 20.7549 11.1593 18.7174 11.4853 15.5085C11.8175 12.2374 15.4491 9.72388 18.4884 9.38091Z"
            fill="white" />
    </g>
    <defs>
        <clipPath id="clip0_43_2423">
            <rect width="50" height="50" fill="white" />
        </clipPath>
    </defs>
</svg>
    