<svg width="50" height="50" viewBox="0 0 50 50" fill="none" xmlns="http://www.w3.org/2000/svg">
    <path
        d="M25 0C38.8068 0 50 11.193 50 25C50 38.807 38.8068 50 25 50C11.193 50 0 38.807 0 25C0 11.193 11.193 0 25 0Z"
        fill="#955E88" />
    <path
        d="M17.7649 19.075C17.1831 19.4485 16.6153 18.5649 17.1975 18.1909C17.5334 17.9747 17.8823 17.7922 18.2397 17.6428L18.5545 18.651C18.2842 18.7696 18.0204 18.9104 17.7649 19.075ZM19.2385 17.3157C19.9887 17.134 20.759 17.0856 21.5145 17.1639L21.3372 18.2008C20.7444 18.1471 20.1416 18.1852 19.5522 18.3206L19.2385 17.3157ZM22.5485 17.3532C23.2754 17.545 23.9723 17.8586 24.6053 18.2874L23.9784 19.1286C23.4811 18.7981 22.9377 18.551 22.3709 18.3915L22.5485 17.3532ZM25.4274 18.9444C25.7737 19.2692 26.0907 19.6356 26.3704 20.0426C26.7602 20.6104 25.8973 21.2032 25.5069 20.6348C25.2944 20.3252 25.0561 20.0434 24.7967 19.7903L25.4274 18.9444ZM26.5547 29.5877C26.7854 29.4118 27.1149 29.4559 27.2911 29.6864C27.4668 29.9172 27.4227 30.2463 27.1922 30.4227C26.8391 30.6922 26.4774 30.9465 26.1075 31.1848L25.5668 30.2838C25.9038 30.0657 26.2332 29.8334 26.5547 29.5877ZM25.2081 31.7254C24.754 31.9793 24.2893 32.2108 23.8159 32.4198L23.4227 31.4448C23.8459 31.2575 24.2612 31.0504 24.6674 30.8249L25.2081 31.7254ZM22.8422 32.812C22.3553 32.9903 21.8602 33.1459 21.3582 33.2776L21.1227 32.2538C21.5709 32.1352 22.0135 31.9963 22.4491 31.8375L22.8422 32.812ZM20.3346 33.5122C19.8272 33.6114 19.3143 33.687 18.7971 33.7391L18.7247 32.6916C19.1866 32.6444 19.6454 32.5764 20.0991 32.4885L20.3346 33.5122ZM17.7489 33.8108C17.4469 33.8223 17.144 33.8252 16.8403 33.8206C16.1497 33.8092 16.1672 32.7608 16.8569 32.7721C17.1307 32.7764 17.404 32.7741 17.6764 32.7643L17.7489 33.8108ZM23.1112 25.2182C23.5983 24.7282 24.3428 25.4682 23.8555 25.9583C23.4448 26.3717 22.9868 26.6961 22.501 26.9374L22.1831 25.9186C22.5139 25.7368 22.8272 25.5042 23.1112 25.2182ZM21.5147 27.3045C20.9088 27.4602 20.2832 27.5014 19.6706 27.4348L19.9026 26.402C20.335 26.4368 20.7739 26.4032 21.2008 26.2995L21.5147 27.3045ZM18.6438 27.2168C18.0524 27.0276 17.493 26.7323 16.9993 26.3366L17.7137 25.5614C18.067 25.834 18.4604 26.0434 18.875 26.1868L18.6438 27.2168ZM16.2522 25.5971C15.9403 25.2161 15.6764 24.7797 15.4752 24.2905C15.3653 24.0225 15.493 23.7161 15.7612 23.6059C16.0291 23.4958 16.3356 23.6239 16.4457 23.8918C16.5858 24.2323 16.7639 24.5407 16.9729 24.8155L16.2522 25.5971Z"
        fill="white" />
    <path
        d="M35.8623 34.649L36.9672 37.2564C37.6385 38.8404 35.2256 39.8656 34.5512 38.2746L33.417 35.5992C31.3922 30.8213 33.2381 27.9564 34.8498 25.0973C35.8432 23.3355 36.8639 21.5252 36.8617 19.1137C36.8569 13.5629 32.6401 10.2635 27.3016 10.2635C23.0119 10.2635 17.8883 12.4674 16.1211 16.6174C15.658 17.7053 15.6436 18.8156 15.6332 19.6223C15.6248 20.2842 15.618 20.8055 15.4219 21.2801C14.6086 23.248 13.1147 24.46 12.1955 26.1918C12.7231 26.3592 13.186 26.3975 13.6791 26.7098C14.5408 27.2557 14.4213 27.9441 14.2582 28.8834C14.0774 29.9268 14.0282 30.4502 14.6098 31.3768C14.9696 31.9502 15.2733 32.4342 15.2686 33.5875C15.2662 34.1293 15.3885 34.4305 15.5936 34.583C16.0627 34.9316 17.1627 34.9857 17.7996 35.0428C21.36 35.36 21.3864 35.3625 22.8725 38.7484C23.0233 39.0928 23.0244 39.0986 23.1901 39.4752C23.8864 41.0576 21.4807 42.1164 20.7844 40.5342C20.6651 40.2633 20.6168 40.1393 20.4668 39.7973C19.6057 37.8354 19.5908 37.8342 17.5737 37.6541C17.2889 37.6287 17.0031 37.6057 16.7188 37.5756C15.6906 37.4682 14.7676 37.2383 14.0313 36.691C13.1606 36.0439 12.6408 35.076 12.6471 33.5775C12.6489 33.1889 12.5297 32.9996 12.3893 32.7758C12.1176 32.3428 11.8102 31.8525 11.601 30.9016C11.4303 30.1252 11.5145 29.373 11.6139 28.7588C9.7426 28.2266 8.82444 26.748 9.96389 24.8125C10.851 23.3059 12.3629 21.8145 12.9955 20.2834C13.003 20.2654 13.0071 19.9687 13.0117 19.5918C13.0248 18.5619 13.0434 17.1447 13.7053 15.5898C15.8922 10.4535 21.9424 7.63184 27.3018 7.63184C34.0889 7.63184 39.4774 12.1166 39.4836 19.1141C39.4864 22.2068 38.2944 24.3225 37.1358 26.3816C35.8231 28.7148 34.3356 31.0459 35.8623 34.649ZM26.6198 27.4879C26.6198 27.052 26.9735 26.6982 27.4092 26.6982C27.8451 26.6982 28.1987 27.052 28.1987 27.4879C28.1987 28.1207 29.1131 28.4344 29.4899 27.552C30.2338 25.8113 30.55 25.915 31.4356 24.8264C32.4744 23.5492 31.6301 21.7297 30.0684 21.775C29.4338 21.7934 28.8451 22.1512 28.574 22.7309C28.3903 23.1244 27.9221 23.2941 27.5287 23.1102C27.1352 22.9264 26.9655 22.4582 27.1494 22.0645C28.2975 19.6107 31.894 19.5494 33.1221 22.0686C33.7063 23.2664 33.5557 24.7139 32.6569 25.8191C31.8094 26.8613 31.5354 26.7738 30.9395 28.1686C29.8828 30.642 26.6198 29.8039 26.6198 27.4879ZM18.8633 24.0674C18.2699 24.0086 17.8461 23.4682 17.9266 22.8781C17.8571 22.8688 17.7864 22.8604 17.7155 22.8531C17.1389 22.7914 16.7207 22.274 16.7823 21.6973C16.8434 21.1205 17.361 20.7023 17.9377 20.7643C19.2477 20.9043 20.3139 21.2342 21.4795 21.7824C22.3471 22.1904 22.2742 23.3895 21.4303 23.7188C20.6301 24.0311 19.7961 24.1596 18.8633 24.0674Z"
        fill="white" />
</svg>
    